<svg width="16" height="16" viewBox="0 0 16 16" fill="none" xmlns="http://www.w3.org/2000/svg">
<path d="M11.8736 3.6626V4.15594L9.51362 2.78927C8.62029 2.27594 7.37362 2.27594 6.48695 2.78927L4.12695 4.1626V3.6626C4.12695 2.1626 4.94695 1.33594 6.44695 1.33594H9.55362C11.0536 1.33594 11.8736 2.1626 11.8736 3.6626Z" fill="#047069"/>
<path d="M11.893 5.30958L11.7997 5.26292L10.893 4.74292L9.01301 3.65625C8.43967 3.32292 7.55967 3.32292 6.98634 3.65625L5.10634 4.73625L4.19967 5.26958L4.07967 5.32958C2.91301 6.11625 2.83301 6.26292 2.83301 7.52292V10.5363C2.83301 11.7963 2.91301 11.9429 4.10634 12.7496L6.98634 14.4096C7.27301 14.5829 7.63301 14.6562 7.99967 14.6562C8.35967 14.6562 8.72634 14.5763 9.01301 14.4096L11.9197 12.7296C13.093 11.9429 13.1663 11.8029 13.1663 10.5363V7.52292C13.1663 6.26292 13.0863 6.11625 11.893 5.30958ZM9.85967 8.99625L9.45301 9.49625C9.38634 9.56958 9.33967 9.70958 9.34634 9.80958L9.38634 10.4496C9.41301 10.8429 9.13301 11.0429 8.76634 10.9029L8.17301 10.6629C8.07967 10.6296 7.92634 10.6296 7.83301 10.6629L7.23967 10.8963C6.87301 11.0429 6.59301 10.8363 6.61967 10.4429L6.65967 9.80292C6.66634 9.70292 6.61967 9.56292 6.55301 9.48958L6.13967 8.99625C5.88634 8.69625 5.99967 8.36292 6.37967 8.26292L6.99967 8.10292C7.09967 8.07625 7.21301 7.98292 7.26634 7.90292L7.61301 7.36958C7.82634 7.03625 8.16634 7.03625 8.38634 7.36958L8.73301 7.90292C8.78634 7.98958 8.90634 8.07625 8.99967 8.10292L9.61967 8.26292C9.99967 8.36292 10.113 8.69625 9.85967 8.99625Z" fill="#047069"/>
</svg>
