<svg width="17" height="15" viewBox="0 0 17 15" fill="none" xmlns="http://www.w3.org/2000/svg">
<path d="M6.20377 11.3097L4.45755 11.4854C4.30937 11.5004 4.20475 11.4002 4.22395 11.2617L4.44869 9.63112C4.47946 9.40797 4.78371 9.2672 4.93091 9.40797L5.06211 9.53351C5.12832 9.59674 5.13669 9.70081 5.08426 9.79797C4.97054 10.008 4.941 10.2517 5.04931 10.4797C5.09632 10.5787 5.17977 10.6541 5.2866 10.6975C5.52315 10.7935 5.77571 10.7697 5.99577 10.6705C6.10087 10.6232 6.21189 10.6329 6.27811 10.6964L6.45238 10.863C6.59958 11.0037 6.44278 11.2857 6.20377 11.3097Z" fill="#047069"/>
<path d="M5.48285 9.92612L5.86587 10.2942C5.91387 10.3403 5.86907 10.4317 5.7903 10.4488C5.76962 10.4532 5.74895 10.4567 5.72778 10.4587C5.45898 10.4857 5.26919 10.3041 5.3039 10.053C5.30661 10.033 5.31079 10.0131 5.31621 9.99327C5.33639 9.91966 5.43485 9.87973 5.48285 9.92612Z" fill="#047069"/>
<path d="M4.05395 8.69467L2.68656 7.66128C2.57063 7.57359 2.5721 7.43351 2.69001 7.34836L4.07881 6.34428C4.26884 6.20697 4.59032 6.30897 4.5881 6.50605L4.58613 6.6819C4.58515 6.77051 4.51278 6.84967 4.40226 6.88336C4.16349 6.95628 3.95869 7.10928 3.86318 7.34236C3.82183 7.44367 3.8238 7.55236 3.86663 7.65367C3.9614 7.8782 4.15783 8.0289 4.38847 8.10459C4.4985 8.14082 4.56964 8.22136 4.56866 8.3102L4.5662 8.54351C4.56398 8.74059 4.24053 8.83613 4.05346 8.69467H4.05395Z" fill="#047069"/>
<path d="M4.58593 7.24307L4.57904 7.75722C4.5783 7.82161 4.47762 7.85668 4.40894 7.8163C4.39097 7.80568 4.37374 7.79437 4.35725 7.78191C4.14679 7.62291 4.1495 7.3686 4.3634 7.21399C4.38039 7.20153 4.39836 7.19022 4.41707 7.17984C4.48673 7.14107 4.58667 7.17822 4.58568 7.24284L4.58593 7.24307Z" fill="#047069"/>
<path d="M4.50922 5.42071L4.3219 3.78363C4.3059 3.64471 4.41273 3.54663 4.56042 3.56463L6.29975 3.77532C6.53778 3.80417 6.68793 4.0894 6.53778 4.2274L6.40387 4.3504C6.33642 4.41248 6.22541 4.42032 6.12178 4.37117C5.89778 4.26455 5.63784 4.23686 5.39464 4.3384C5.28904 4.38248 5.20855 4.46071 5.16227 4.56086C5.05987 4.78263 5.08522 5.0194 5.19107 5.22571C5.24153 5.32424 5.23119 5.42832 5.1635 5.4904L4.98578 5.65378C4.83562 5.79178 4.53482 5.64478 4.50922 5.42071Z" fill="#047069"/>
<path d="M5.98209 4.74192L5.58948 5.101C5.54025 5.146 5.44277 5.104 5.42455 5.03015C5.41988 5.01077 5.41619 4.99138 5.41397 4.97154C5.38517 4.71954 5.57889 4.54161 5.84671 4.57415C5.86812 4.57669 5.88929 4.58061 5.91046 4.58569C5.98899 4.60461 6.03157 4.69692 5.98209 4.74192Z" fill="#047069"/>
<path d="M7.30246 3.40159L8.40473 2.11967C8.49827 2.01098 8.64769 2.01236 8.73852 2.1229L9.80953 3.4249C9.95599 3.60305 9.84719 3.90444 9.63698 3.90236L9.44941 3.90051C9.35489 3.89959 9.27046 3.83175 9.23452 3.72813C9.15673 3.50428 8.99353 3.31228 8.74492 3.22274C8.63686 3.18398 8.52092 3.18582 8.41285 3.22598C8.17335 3.31482 8.01261 3.49898 7.93187 3.71521C7.89322 3.81836 7.80732 3.88505 7.71255 3.88413L7.46369 3.88182C7.25347 3.87974 7.15156 3.57651 7.30246 3.40113V3.40159Z" fill="#047069"/>
<path d="M8.85345 3.89977L8.30502 3.89331C8.23634 3.89262 8.19893 3.79823 8.24201 3.73385C8.25333 3.717 8.26539 3.70085 8.27868 3.68539C8.44828 3.48808 8.71954 3.49062 8.88447 3.69116C8.89776 3.70708 8.90982 3.72393 8.9209 3.74146C8.96225 3.80677 8.92262 3.90046 8.8537 3.89954L8.85345 3.89977Z" fill="#047069"/>
<path d="M10.7969 3.82554L12.5432 3.64992C12.6913 3.63492 12.796 3.73508 12.7768 3.87354L12.552 5.50416C12.5212 5.72731 12.217 5.86808 12.0698 5.72731L11.9386 5.60177C11.8724 5.53854 11.864 5.43446 11.9164 5.33731C12.0302 5.12731 12.0597 4.88362 11.9514 4.65562C11.9044 4.55662 11.8209 4.48116 11.7141 4.43777C11.4776 4.34177 11.225 4.36554 11.0049 4.46477C10.8998 4.51208 10.7888 4.50239 10.7226 4.43892L10.5483 4.27231C10.4011 4.13154 10.5579 3.84954 10.7969 3.82554Z" fill="#047069"/>
<path d="M11.518 5.20715L11.135 4.83907C11.087 4.79292 11.1318 4.70153 11.2106 4.68446C11.2313 4.68007 11.2519 4.67661 11.2731 4.67453C11.5419 4.64753 11.7317 4.82915 11.697 5.08023C11.6943 5.1003 11.6901 5.12015 11.6847 5.14C11.6645 5.21361 11.566 5.25353 11.518 5.20715Z" fill="#047069"/>
<path d="M12.9473 6.4503L14.3146 7.48368C14.4306 7.57138 14.4291 7.71145 14.3112 7.79661L12.9224 8.80068C12.7324 8.93799 12.4109 8.83599 12.4131 8.63892L12.4151 8.46307C12.4161 8.37445 12.4884 8.2953 12.5989 8.26161C12.8377 8.18868 13.0425 8.03568 13.138 7.80261C13.1794 7.7013 13.1774 7.59261 13.1346 7.4913C13.0398 7.26676 12.8434 7.11607 12.6127 7.04038C12.5027 7.00415 12.4316 6.92361 12.4325 6.83476L12.435 6.60145C12.4372 6.40438 12.7607 6.30884 12.9477 6.4503H12.9473Z" fill="#047069"/>
<path d="M12.416 7.90296L12.4229 7.3888C12.4236 7.32442 12.5243 7.28934 12.593 7.32972C12.611 7.34034 12.6282 7.35165 12.6447 7.36411C12.8552 7.52311 12.8524 7.77742 12.6385 7.93203C12.6216 7.94449 12.6036 7.9558 12.5849 7.96619C12.5152 8.00496 12.4153 7.9678 12.4163 7.90319L12.416 7.90296Z" fill="#047069"/>
<path d="M12.492 9.72412L12.6794 11.3612C12.6954 11.5001 12.5885 11.5982 12.4408 11.5802L10.7015 11.3695C10.4635 11.3407 10.3133 11.0554 10.4635 10.9174L10.5974 10.7944C10.6648 10.7324 10.7759 10.7245 10.8795 10.7737C11.1035 10.8803 11.3634 10.908 11.6066 10.8064C11.7122 10.7624 11.7927 10.6841 11.839 10.584C11.9414 10.3622 11.916 10.1254 11.8102 9.91912C11.7597 9.82058 11.7701 9.71651 11.8378 9.65443L12.0155 9.49104C12.1656 9.35304 12.4664 9.50004 12.492 9.72412Z" fill="#047069"/>
<path d="M11.0192 10.4011L11.4119 10.042C11.4611 9.99699 11.5586 10.039 11.5768 10.1128C11.5815 10.1322 11.5851 10.1516 11.5874 10.1715C11.6162 10.4235 11.4224 10.6014 11.1546 10.5688C11.1332 10.5663 11.112 10.5624 11.0909 10.5573C11.0123 10.5384 10.9698 10.4461 11.0192 10.4011Z" fill="#047069"/>
<path d="M9.69833 11.7352L8.59606 13.0171C8.50252 13.1258 8.3531 13.1244 8.26227 13.0138L7.19126 11.7118C7.04479 11.5337 7.15359 11.2323 7.36381 11.2344L7.55138 11.2362C7.6459 11.2372 7.73033 11.305 7.76627 11.4086C7.84406 11.6325 8.00726 11.8245 8.25587 11.914C8.36393 11.9528 8.47987 11.9509 8.58793 11.9108C8.82744 11.8219 8.98818 11.6378 9.06892 11.4215C9.10756 11.3184 9.19347 11.2517 9.28824 11.2526L9.5371 11.2549C9.74732 11.257 9.84923 11.5602 9.69833 11.7356V11.7352Z" fill="#047069"/>
<path d="M8.14775 11.2344L8.69618 11.2408C8.76486 11.2415 8.80227 11.3359 8.75919 11.4003C8.74787 11.4171 8.73581 11.4333 8.72252 11.4488C8.55292 11.6461 8.28166 11.6435 8.11673 11.443C8.10344 11.4271 8.09138 11.4102 8.0803 11.3927C8.03895 11.3274 8.07858 11.2337 8.1475 11.2346L8.14775 11.2344Z" fill="#047069"/>
<path d="M8.49975 10.7068C6.63981 10.7068 5.12695 9.28827 5.12695 7.54481C5.12695 5.80135 6.64006 4.38281 8.49975 4.38281C10.3594 4.38281 11.8726 5.80135 11.8726 7.54481C11.8726 9.28827 10.3594 10.7068 8.49975 10.7068ZM8.49975 4.49797C6.70775 4.49797 5.25003 5.86481 5.25003 7.54458C5.25003 9.22435 6.708 10.5912 8.49975 10.5912C10.2915 10.5912 11.7495 9.22435 11.7495 7.54458C11.7495 5.86481 10.2915 4.49797 8.49975 4.49797Z" fill="#047069"/>
</svg>
