<svg width="14" height="14" viewBox="0 0 14 14" fill="none" xmlns="http://www.w3.org/2000/svg">
<rect width="14" height="14" rx="7" fill="white"/>
<path d="M7.01126 11.9756C5.6521 11.9756 4.29293 11.7598 3.00376 11.3281C2.51376 11.159 2.14043 10.8148 1.9771 10.3656C1.80793 9.91646 1.86626 9.42063 2.1346 8.97729L2.80543 7.86313C2.94543 7.62979 3.07376 7.16313 3.07376 6.88896V5.20313C3.07376 3.03313 4.84126 1.26562 7.01126 1.26562C9.18126 1.26562 10.9488 3.03313 10.9488 5.20313V6.88896C10.9488 7.15729 11.0771 7.62979 11.2171 7.86896L11.8821 8.97729C12.1329 9.39729 12.1796 9.90479 12.0104 10.3656C11.8413 10.8265 11.4738 11.1765 11.0129 11.3281C9.7296 11.7598 8.37043 11.9756 7.01126 11.9756ZM7.01126 2.14063C5.32543 2.14063 3.94876 3.51146 3.94876 5.20313V6.88896C3.94876 7.31479 3.77376 7.94479 3.55793 8.31229L2.8871 9.42646C2.75876 9.64229 2.72376 9.86979 2.7996 10.0623C2.8696 10.2606 3.0446 10.4123 3.28376 10.494C5.7221 11.3106 8.30626 11.3106 10.7446 10.494C10.9546 10.424 11.1179 10.2665 11.1938 10.0565C11.2696 9.84646 11.2521 9.61896 11.1354 9.42646L10.4646 8.31229C10.2429 7.93313 10.0738 7.30896 10.0738 6.88313V5.20313C10.0738 3.51146 8.70293 2.14063 7.01126 2.14063Z" fill="#475467"/>
<path d="M8.09669 2.2975C8.05586 2.2975 8.01503 2.29167 7.97419 2.28C7.80503 2.23333 7.64169 2.19833 7.48419 2.175C6.98836 2.11083 6.51003 2.14583 6.06086 2.28C5.89753 2.3325 5.72253 2.28 5.61169 2.1575C5.50086 2.035 5.46586 1.86 5.53003 1.7025C5.76919 1.09 6.35253 0.6875 7.01753 0.6875C7.68253 0.6875 8.26586 1.08417 8.50503 1.7025C8.56336 1.86 8.53419 2.035 8.42336 2.1575C8.33586 2.25083 8.21336 2.2975 8.09669 2.2975Z" fill="#475467"/>
<path d="M7.01172 13.3047C6.43422 13.3047 5.87422 13.0714 5.46589 12.663C5.05755 12.2547 4.82422 11.6947 4.82422 11.1172H5.69922C5.69922 11.4614 5.83922 11.7997 6.08422 12.0447C6.32922 12.2897 6.66755 12.4297 7.01172 12.4297C7.73505 12.4297 8.32422 11.8405 8.32422 11.1172H9.19922C9.19922 12.3247 8.21922 13.3047 7.01172 13.3047Z" fill="#475467"/>
</svg>
