<svg width="16" height="16" viewBox="0 0 16 16" fill="none" xmlns="http://www.w3.org/2000/svg">
<path d="M5.33325 3.83203C5.05992 3.83203 4.83325 3.60536 4.83325 3.33203V1.33203C4.83325 1.0587 5.05992 0.832031 5.33325 0.832031C5.60659 0.832031 5.83325 1.0587 5.83325 1.33203V3.33203C5.83325 3.60536 5.60659 3.83203 5.33325 3.83203Z" fill="#4F4F2A"/>
<path d="M10.6667 3.83203C10.3934 3.83203 10.1667 3.60536 10.1667 3.33203V1.33203C10.1667 1.0587 10.3934 0.832031 10.6667 0.832031C10.9401 0.832031 11.1667 1.0587 11.1667 1.33203V3.33203C11.1667 3.60536 10.9401 3.83203 10.6667 3.83203Z" fill="#4F4F2A"/>
<path d="M13.6666 6.55859H2.33325C2.05992 6.55859 1.83325 6.33193 1.83325 6.05859C1.83325 5.78526 2.05992 5.55859 2.33325 5.55859H13.6666C13.9399 5.55859 14.1666 5.78526 14.1666 6.05859C14.1666 6.33193 13.9399 6.55859 13.6666 6.55859Z" fill="#4F4F2A"/>
<path d="M10.6667 15.1654H5.33333C2.9 15.1654 1.5 13.7654 1.5 11.332V5.66536C1.5 3.23203 2.9 1.83203 5.33333 1.83203H10.6667C13.1 1.83203 14.5 3.23203 14.5 5.66536V11.332C14.5 13.7654 13.1 15.1654 10.6667 15.1654ZM5.33333 2.83203C3.42667 2.83203 2.5 3.7587 2.5 5.66536V11.332C2.5 13.2387 3.42667 14.1654 5.33333 14.1654H10.6667C12.5733 14.1654 13.5 13.2387 13.5 11.332V5.66536C13.5 3.7587 12.5733 2.83203 10.6667 2.83203H5.33333Z" fill="#4F4F2A"/>
<path d="M5.66667 9.66537C5.58 9.66537 5.49333 9.64538 5.41333 9.61205C5.33333 9.57872 5.26001 9.53203 5.19334 9.47203C5.13334 9.40537 5.08666 9.33204 5.05332 9.25204C5.01999 9.17204 5 9.08537 5 8.99871C5 8.82537 5.07334 8.65204 5.19334 8.52538C5.26001 8.46538 5.33333 8.4187 5.41333 8.38536C5.53333 8.33203 5.66667 8.3187 5.80001 8.34537C5.84001 8.35203 5.88 8.36536 5.92 8.38536C5.96 8.3987 6 8.41871 6.04 8.44538C6.07333 8.47205 6.10666 8.49871 6.13999 8.52538C6.16666 8.55871 6.19999 8.59204 6.21999 8.62537C6.24666 8.66537 6.26668 8.70537 6.28001 8.74537C6.30001 8.78537 6.31334 8.82536 6.32001 8.86536C6.32667 8.91203 6.33333 8.95204 6.33333 8.99871C6.33333 9.17204 6.25999 9.34537 6.13999 9.47203C6.01333 9.59203 5.84 9.66537 5.66667 9.66537Z" fill="#4F4F2A"/>
<path d="M7.99992 9.66854C7.82659 9.66854 7.65326 9.5952 7.52659 9.4752C7.49992 9.44186 7.47326 9.40853 7.44659 9.3752C7.41993 9.3352 7.39991 9.29521 7.38658 9.25521C7.36658 9.21521 7.35324 9.17521 7.34658 9.13521C7.33991 9.08854 7.33325 9.04854 7.33325 9.00187C7.33325 8.9152 7.35324 8.82853 7.38658 8.74853C7.41991 8.66853 7.46659 8.59521 7.52659 8.52854C7.71326 8.34187 8.01326 8.28186 8.25326 8.38853C8.33992 8.42186 8.40658 8.46854 8.47325 8.52854C8.59325 8.65521 8.66659 8.82854 8.66659 9.00187C8.66659 9.04854 8.65993 9.08854 8.65326 9.13521C8.64659 9.17521 8.63326 9.21521 8.61326 9.25521C8.59993 9.29521 8.57991 9.3352 8.55324 9.3752C8.52658 9.40853 8.49991 9.44186 8.47325 9.4752C8.40658 9.5352 8.33992 9.58188 8.25326 9.61521C8.17326 9.64854 8.08659 9.66854 7.99992 9.66854Z" fill="#4F4F2A"/>
<path d="M5.66667 12.0006C5.58 12.0006 5.49333 11.9806 5.41333 11.9472C5.33333 11.9139 5.26001 11.8672 5.19334 11.8072C5.13334 11.7406 5.08666 11.6739 5.05332 11.5872C5.01999 11.5072 5 11.4206 5 11.3339C5 11.1606 5.07334 10.9872 5.19334 10.8606C5.26001 10.8006 5.33333 10.7539 5.41333 10.7206C5.66 10.6139 5.95333 10.6739 6.13999 10.8606C6.16666 10.8939 6.19999 10.9272 6.21999 10.9606C6.24666 11.0006 6.26668 11.0406 6.28001 11.0806C6.30001 11.1206 6.31334 11.1606 6.32001 11.2072C6.32667 11.2472 6.33333 11.2939 6.33333 11.3339C6.33333 11.5072 6.25999 11.6806 6.13999 11.8072C6.01333 11.9272 5.84 12.0006 5.66667 12.0006Z" fill="#17191D"/>
</svg>
