<svg width="16" height="16" viewBox="0 0 16 16" fill="none" xmlns="http://www.w3.org/2000/svg">
<path d="M6.10671 7.74927C6.08671 7.74927 6.07337 7.74927 6.05337 7.74927C6.02004 7.7426 5.97337 7.7426 5.93337 7.74927C4.00004 7.68927 2.54004 6.16927 2.54004 4.29594C2.54004 2.38927 4.09337 0.835938 6.00004 0.835938C7.90671 0.835938 9.46004 2.38927 9.46004 4.29594C9.45337 6.16927 7.98671 7.68927 6.12671 7.74927C6.12004 7.74927 6.11337 7.74927 6.10671 7.74927ZM6.00004 1.83594C4.64671 1.83594 3.54004 2.9426 3.54004 4.29594C3.54004 5.62927 4.58004 6.7026 5.90671 6.74927C5.94671 6.7426 6.03337 6.7426 6.12004 6.74927C7.42671 6.68927 8.45337 5.61594 8.46004 4.29594C8.46004 2.9426 7.35337 1.83594 6.00004 1.83594Z" fill="#4F4F2A"/>
<path d="M11.0266 7.83073C11.0066 7.83073 10.9866 7.83073 10.9666 7.82406C10.6932 7.85073 10.4132 7.6574 10.3866 7.38406C10.3599 7.11073 10.5266 6.86406 10.7999 6.83073C10.8799 6.82406 10.9666 6.82406 11.0399 6.82406C12.0132 6.77073 12.7732 5.97073 12.7732 4.99073C12.7732 3.9774 11.9532 3.1574 10.9399 3.1574C10.6666 3.16406 10.4399 2.9374 10.4399 2.66406C10.4399 2.39073 10.6666 2.16406 10.9399 2.16406C12.4999 2.16406 13.7732 3.4374 13.7732 4.9974C13.7732 6.53073 12.5732 7.77073 11.0466 7.83073C11.0399 7.83073 11.0332 7.83073 11.0266 7.83073Z" fill="#4F4F2A"/>
<path d="M6.11307 15.0307C4.80641 15.0307 3.49307 14.6974 2.49974 14.0307C1.57307 13.4174 1.06641 12.5774 1.06641 11.6641C1.06641 10.7507 1.57307 9.90406 2.49974 9.28406C4.49974 7.9574 7.73974 7.9574 9.72641 9.28406C10.6464 9.8974 11.1597 10.7374 11.1597 11.6507C11.1597 12.5641 10.6531 13.4107 9.72641 14.0307C8.72641 14.6974 7.41974 15.0307 6.11307 15.0307ZM3.05307 10.1241C2.41307 10.5507 2.06641 11.0974 2.06641 11.6707C2.06641 12.2374 2.41974 12.7841 3.05307 13.2041C4.71307 14.3174 7.51307 14.3174 9.17307 13.2041C9.81307 12.7774 10.1597 12.2307 10.1597 11.6574C10.1597 11.0907 9.80641 10.5441 9.17307 10.1241C7.51307 9.0174 4.71307 9.0174 3.05307 10.1241Z" fill="#4F4F2A"/>
<path d="M12.2268 13.8333C11.9934 13.8333 11.7868 13.6733 11.7401 13.4333C11.6868 13.16 11.8601 12.9 12.1268 12.84C12.5468 12.7533 12.9334 12.5867 13.2334 12.3533C13.6134 12.0667 13.8201 11.7067 13.8201 11.3267C13.8201 10.9467 13.6134 10.5867 13.2401 10.3067C12.9468 10.08 12.5801 9.92001 12.1468 9.82001C11.8801 9.76001 11.7068 9.49335 11.7668 9.22001C11.8268 8.95335 12.0934 8.78001 12.3668 8.84001C12.9401 8.96668 13.4401 9.19335 13.8468 9.50668C14.4668 9.97335 14.8201 10.6333 14.8201 11.3267C14.8201 12.02 14.4601 12.68 13.8401 13.1533C13.4268 13.4733 12.9068 13.7067 12.3334 13.82C12.2934 13.8333 12.2601 13.8333 12.2268 13.8333Z" fill="#4F4F2A"/>
</svg>
