<svg width="16" height="16" viewBox="0 0 16 16" fill="none" xmlns="http://www.w3.org/2000/svg">
<path d="M7.99967 15.1693C4.04634 15.1693 0.833008 11.9559 0.833008 8.0026C0.833008 4.04927 4.04634 0.835938 7.99967 0.835938C11.953 0.835938 15.1663 4.04927 15.1663 8.0026C15.1663 11.9559 11.953 15.1693 7.99967 15.1693ZM7.99967 1.83594C4.59967 1.83594 1.83301 4.6026 1.83301 8.0026C1.83301 11.4026 4.59967 14.1693 7.99967 14.1693C11.3997 14.1693 14.1663 11.4026 14.1663 8.0026C14.1663 4.6026 11.3997 1.83594 7.99967 1.83594Z" fill="#4F4F2A"/>
<path d="M10.6663 8.5H5.33301C5.05967 8.5 4.83301 8.27333 4.83301 8C4.83301 7.72667 5.05967 7.5 5.33301 7.5H10.6663C10.9397 7.5 11.1663 7.72667 11.1663 8C11.1663 8.27333 10.9397 8.5 10.6663 8.5Z" fill="#4F4F2A"/>
<path d="M8 11.1693C7.72667 11.1693 7.5 10.9426 7.5 10.6693V5.33594C7.5 5.0626 7.72667 4.83594 8 4.83594C8.27333 4.83594 8.5 5.0626 8.5 5.33594V10.6693C8.5 10.9426 8.27333 11.1693 8 11.1693Z" fill="#4F4F2A"/>
</svg>
