<svg width="16" height="16" viewBox="0 0 16 16" fill="none" xmlns="http://www.w3.org/2000/svg">
<path d="M11.0001 12.1654H9.99341C9.72007 12.1654 9.49341 11.9387 9.49341 11.6654C9.49341 11.392 9.72007 11.1654 9.99341 11.1654H11.0001C12.7467 11.1654 14.1667 9.74537 14.1667 7.9987C14.1667 6.25203 12.7467 4.83203 11.0001 4.83203H10.0001C9.72674 4.83203 9.50008 4.60536 9.50008 4.33203C9.50008 4.0587 9.72008 3.83203 10.0001 3.83203H11.0001C13.3001 3.83203 15.1667 5.6987 15.1667 7.9987C15.1667 10.2987 13.3001 12.1654 11.0001 12.1654Z" fill="#4F4F2A"/>
<path d="M5.99992 12.1654H4.99992C2.69992 12.1654 0.833252 10.2987 0.833252 7.9987C0.833252 5.6987 2.69992 3.83203 4.99992 3.83203H5.99992C6.27325 3.83203 6.49992 4.0587 6.49992 4.33203C6.49992 4.60536 6.27325 4.83203 5.99992 4.83203H4.99992C3.25325 4.83203 1.83325 6.25203 1.83325 7.9987C1.83325 9.74537 3.25325 11.1654 4.99992 11.1654H5.99992C6.27325 11.1654 6.49992 11.392 6.49992 11.6654C6.49992 11.9387 6.27325 12.1654 5.99992 12.1654Z" fill="#4F4F2A"/>
<path d="M10.6666 8.5H5.33325C5.05992 8.5 4.83325 8.27333 4.83325 8C4.83325 7.72667 5.05992 7.5 5.33325 7.5H10.6666C10.9399 7.5 11.1666 7.72667 11.1666 8C11.1666 8.27333 10.9399 8.5 10.6666 8.5Z" fill="#4F4F2A"/>
</svg>
