<svg width="16" height="16" viewBox="0 0 16 16" fill="none" xmlns="http://www.w3.org/2000/svg">
<path d="M3.6471 7.16927C3.17376 7.16927 2.69376 6.99594 2.3271 6.6426C1.10043 5.47594 0.607096 4.2026 0.893762 2.95594C1.23376 1.48927 2.52043 0.835938 3.6471 0.835938C4.77376 0.835938 6.0671 1.49594 6.40043 2.95594C6.6871 4.2026 6.1871 5.47594 4.96709 6.6426C4.60043 6.99594 4.1271 7.16927 3.6471 7.16927ZM1.8671 3.1826C1.61376 4.29594 2.35376 5.2826 3.02043 5.91594C3.37376 6.25594 3.9271 6.24927 4.28043 5.91594C4.9471 5.2826 5.6871 4.29594 5.4271 3.17594C5.20043 2.18927 4.3271 1.83594 3.65376 1.83594C2.97376 1.83594 2.10043 2.18927 1.8671 3.1826Z" fill="#4F4F2A"/>
<path d="M3.6735 4.13021C3.30684 4.13021 3.00684 3.83021 3.00684 3.46354C3.00684 3.09687 3.30017 2.79688 3.6735 2.79688H3.68017C4.04684 2.79688 4.34684 3.09687 4.34684 3.46354C4.34684 3.83021 4.04684 4.13021 3.6735 4.13021Z" fill="#4F4F2A"/>
<path d="M12.3269 15.1681C11.8536 15.1681 11.3736 14.9948 11.0002 14.6415C9.76691 13.4748 9.26691 12.2015 9.56024 10.9481C9.90024 9.48813 11.1936 8.82812 12.3269 8.82812C13.4602 8.82812 14.7536 9.48813 15.0936 10.9481C15.3802 12.1948 14.8802 13.4748 13.6469 14.6348C13.2802 14.9948 12.8069 15.1681 12.3269 15.1681ZM12.3269 9.83479C11.6469 9.83479 10.7669 10.1881 10.5336 11.1815C10.2736 12.2948 11.0202 13.2881 11.6869 13.9215C12.0402 14.2615 12.6002 14.2615 12.9602 13.9215C13.6269 13.2881 14.3736 12.3015 14.1136 11.1881C13.8936 10.1881 13.0136 9.83479 12.3269 9.83479Z" fill="#4F4F2A"/>
<path d="M12.3532 12.1302C11.9865 12.1302 11.6865 11.8302 11.6865 11.4635C11.6865 11.0969 11.9799 10.7969 12.3532 10.7969H12.3599C12.7265 10.7969 13.0265 11.0969 13.0265 11.4635C13.0265 11.8302 12.7199 12.1302 12.3532 12.1302Z" fill="#4F4F2A"/>
<path d="M7.99963 13.1693H6.21297C5.43963 13.1693 4.7663 12.7026 4.49963 11.9826C4.2263 11.2626 4.4263 10.4693 5.0063 9.95594L10.333 5.29594C10.653 5.01594 10.6596 4.63594 10.5663 4.37594C10.4663 4.11594 10.213 3.83594 9.7863 3.83594H7.99963C7.7263 3.83594 7.49963 3.60927 7.49963 3.33594C7.49963 3.0626 7.7263 2.83594 7.99963 2.83594H9.7863C10.5596 2.83594 11.233 3.3026 11.4996 4.0226C11.773 4.7426 11.573 5.53594 10.993 6.04927L5.6663 10.7093C5.3463 10.9893 5.33963 11.3693 5.43297 11.6293C5.53297 11.8893 5.7863 12.1693 6.21297 12.1693H7.99963C8.27297 12.1693 8.49963 12.3959 8.49963 12.6693C8.49963 12.9426 8.27297 13.1693 7.99963 13.1693Z" fill="#4F4F2A"/>
<path d="M7.99963 13.1693H6.21297C5.43963 13.1693 4.7663 12.7026 4.49963 11.9826C4.2263 11.2626 4.4263 10.4693 5.0063 9.95594L10.333 5.29594C10.653 5.01594 10.6596 4.63594 10.5663 4.37594C10.4663 4.11594 10.213 3.83594 9.7863 3.83594H7.99963C7.7263 3.83594 7.49963 3.60927 7.49963 3.33594C7.49963 3.0626 7.7263 2.83594 7.99963 2.83594H9.7863C10.5596 2.83594 11.233 3.3026 11.4996 4.0226C11.773 4.7426 11.573 5.53594 10.993 6.04927L5.6663 10.7093C5.3463 10.9893 5.33963 11.3693 5.43297 11.6293C5.53297 11.8893 5.7863 12.1693 6.21297 12.1693H7.99963C8.27297 12.1693 8.49963 12.3959 8.49963 12.6693C8.49963 12.9426 8.27297 13.1693 7.99963 13.1693Z" fill="#4F4F2A"/>
</svg>
