<svg width="16" height="16" viewBox="0 0 16 16" fill="none" xmlns="http://www.w3.org/2000/svg">
<path d="M5.33362 9.83689C5.20695 9.83689 5.08029 9.79025 4.98029 9.69025L3.64695 8.35691C3.45362 8.16358 3.45362 7.84354 3.64695 7.65021L4.98029 6.31687C5.17362 6.12354 5.49362 6.12354 5.68695 6.31687C5.88028 6.51021 5.88028 6.83025 5.68695 7.02358L4.70695 8.00356L5.68695 8.98354C5.88028 9.17687 5.88028 9.49691 5.68695 9.69025C5.58695 9.79025 5.46029 9.83689 5.33362 9.83689Z" fill="#4F4F2A"/>
<path d="M10.6663 9.83689C10.5396 9.83689 10.413 9.79025 10.313 9.69025C10.1196 9.49691 10.1196 9.17687 10.313 8.98354L11.293 8.00356L10.313 7.02358C10.1196 6.83025 10.1196 6.51021 10.313 6.31687C10.5063 6.12354 10.8263 6.12354 11.0196 6.31687L12.353 7.65021C12.5463 7.84354 12.5463 8.16358 12.353 8.35691L11.0196 9.69025C10.9196 9.79025 10.793 9.83689 10.6663 9.83689Z" fill="#4F4F2A"/>
<path d="M7.99967 15.1693C4.04634 15.1693 0.833008 11.9559 0.833008 8.0026C0.833008 4.04927 4.04634 0.835938 7.99967 0.835938C11.953 0.835938 15.1663 4.04927 15.1663 8.0026C15.1663 11.9559 11.953 15.1693 7.99967 15.1693ZM7.99967 1.83594C4.59967 1.83594 1.83301 4.6026 1.83301 8.0026C1.83301 11.4026 4.59967 14.1693 7.99967 14.1693C11.3997 14.1693 14.1663 11.4026 14.1663 8.0026C14.1663 4.6026 11.3997 1.83594 7.99967 1.83594Z" fill="#4F4F2A"/>
<path d="M7.33309 10.0537C7.26642 10.0537 7.19976 10.0404 7.13976 10.0137C6.88642 9.90704 6.76642 9.61371 6.87976 9.35371L8.21309 6.24035C8.31976 5.98702 8.61309 5.86701 8.86642 5.98034C9.11975 6.08701 9.23975 6.38038 9.12642 6.64038L7.79309 9.7537C7.71309 9.94036 7.52642 10.0537 7.33309 10.0537Z" fill="#4F4F2A"/>
</svg>
