<svg width="129" height="35" viewBox="0 0 129 35" fill="none" xmlns="http://www.w3.org/2000/svg">
<path d="M20.6081 32.982C16.5233 32.982 12.6836 31.4237 9.79529 28.594C6.90699 25.7644 5.31641 22.0026 5.31641 18.0007C5.31641 13.9989 6.90699 10.2371 9.79529 7.40748C12.6836 4.57782 16.5233 3.01953 20.6081 3.01953C24.6929 3.01953 28.5326 4.57782 31.4209 7.40748C34.3092 10.2371 35.8998 13.9989 35.8998 18.0007C35.8998 22.0026 34.3092 25.7644 31.4209 28.594C28.5326 31.4237 24.6929 32.982 20.6081 32.982ZM20.6081 3.46969C12.4294 3.46969 5.7759 9.98811 5.7759 18.0007C5.7759 26.0134 12.4294 32.5318 20.6081 32.5318C28.7868 32.5318 35.4403 26.0134 35.4403 18.0007C35.4403 9.98811 28.7868 3.46969 20.6081 3.46969Z" fill="#023835"/>
<path d="M11.272 21.0257L19.3517 10.9511C20.037 10.0965 21.1499 10.0942 21.8374 10.9455L29.941 20.9794C31.0499 22.3528 30.2697 24.7066 28.7042 24.7105L27.3075 24.7139C26.604 24.7156 25.9683 24.1952 25.6896 23.3924C25.0874 21.658 23.8545 20.1788 21.9949 19.5053C21.1868 19.2128 20.3242 19.2384 19.5229 19.5604C17.7486 20.2741 16.5698 21.7215 15.9892 23.4113C15.7122 24.2169 15.0787 24.744 14.3735 24.7456L12.5208 24.7501C10.9547 24.754 10.1665 22.4029 11.272 21.0246V21.0257Z" fill="#023835"/>
<path d="M22.8702 24.7608H18.7859C18.2736 24.7608 17.987 24.0299 18.3003 23.5262C18.3822 23.3942 18.4715 23.2677 18.5687 23.1463C19.8124 21.5958 21.8318 21.5913 23.0794 23.1362C23.1795 23.2599 23.2711 23.3897 23.3553 23.5246C23.6692 24.0288 23.3837 24.7608 22.8702 24.7608Z" fill="#023835"/>
<path d="M53.2804 21.0248C53.6512 21.4009 53.6205 22.006 53.2128 22.343C52.9313 22.5753 52.6344 22.7865 52.3211 22.9765C51.1974 23.6578 49.9679 23.9983 48.6338 23.9983C47.2997 23.9983 46.077 23.6578 44.9465 22.9765C43.8086 22.2884 42.9095 21.363 42.2498 20.2003C41.5896 19.0309 41.2598 17.7473 41.2598 16.3505C41.2598 14.9538 41.5896 13.6602 42.2498 12.4902C42.9101 11.3274 43.8091 10.3987 44.9465 9.70342C46.077 9.02205 47.3065 8.68164 48.6338 8.68164C49.9611 8.68164 51.1974 9.02205 52.3211 9.70342C52.6276 9.8895 52.917 10.094 53.1894 10.3168C53.5995 10.6522 53.629 11.2595 53.2577 11.6361L52.1419 12.7676C51.8064 13.1075 51.2599 13.1364 50.8891 12.8345C50.7965 12.7593 50.7049 12.6924 50.6145 12.635C49.9963 12.2289 49.3361 12.0261 48.6338 12.0261C47.9315 12.0261 47.2712 12.2289 46.6531 12.635C46.0491 13.0412 45.5681 13.5777 45.2098 14.2451C44.8583 14.9198 44.6832 15.6212 44.6832 16.3505C44.6832 17.0798 44.8623 17.7818 45.2206 18.4559C45.5789 19.1234 46.06 19.6599 46.6639 20.066C47.2678 20.4722 47.9246 20.675 48.6338 20.675C49.3429 20.675 49.9997 20.4722 50.6037 20.066C50.7111 19.9947 50.8169 19.9167 50.9199 19.8309C51.2872 19.5256 51.836 19.5607 52.1704 19.9L53.2799 21.0248H53.2804Z" fill="#023835"/>
<path d="M56.873 23.2757C55.9176 22.7804 55.159 22.1024 54.5977 21.2422C54.029 20.3753 53.7441 19.4048 53.7441 18.3318C53.7441 17.5267 53.9091 16.7768 54.2395 16.0815C54.5693 15.3868 55.0225 14.7845 55.5986 14.2753C56.1815 13.7594 56.8451 13.3638 57.5895 13.0886C58.3481 12.8134 59.1238 12.6758 59.9177 12.6758C60.7115 12.6758 61.498 12.8134 62.2566 13.0886C62.9942 13.3499 63.6579 13.7421 64.2476 14.2653C64.8305 14.7884 65.2837 15.394 65.6067 16.0815C65.9365 16.7768 66.102 17.5267 66.102 18.3318C66.102 19.1368 65.9405 19.9006 65.6175 20.582C65.2945 21.2701 64.8379 21.879 64.2481 22.4088C63.651 22.932 62.9874 23.3275 62.2572 23.5955C61.5196 23.8774 60.74 24.0189 59.9182 24.0189C58.8435 24.0189 57.8289 23.771 56.8736 23.2757H56.873ZM57.9478 20.231C58.5022 20.7608 59.1591 21.0255 59.9177 21.0255C60.6763 21.0255 61.3433 20.7608 61.8984 20.231C62.4602 19.7012 62.7412 19.0683 62.7412 18.3318C62.7412 17.8504 62.6109 17.4064 62.3516 17.0002C62.0917 16.5941 61.7443 16.2709 61.3087 16.0303C60.8804 15.7896 60.4164 15.6692 59.9182 15.6692C59.4201 15.6692 58.9737 15.7896 58.5381 16.0303C58.1025 16.2709 57.755 16.5946 57.4951 17.0002C57.2352 17.4064 57.1056 17.8498 57.1056 18.3318C57.1056 19.0683 57.3865 19.7012 57.9484 20.231H57.9478Z" fill="#023835"/>
<path d="M76.1733 17.2078V23.0855C76.1733 23.4187 75.8975 23.6889 75.5574 23.6889H73.4078C73.0678 23.6889 72.792 23.4187 72.792 23.0855V17.2078C72.792 17.1939 72.792 17.1794 72.7908 17.1654C72.7294 16.2094 72.3052 15.7175 71.5176 15.6902H71.3282C70.4712 15.718 70.043 16.2991 70.043 17.4345V23.0855C70.043 23.4187 69.7672 23.6889 69.4271 23.6889H67.2877C66.9477 23.6889 66.6719 23.4187 66.6719 23.0855V17.4345C66.6719 14.4478 68.2175 12.8689 71.3094 12.6984C71.3219 12.6978 71.335 12.6973 71.3475 12.6973H71.4982C71.5113 12.6973 71.5249 12.6973 71.538 12.6984C72.6054 12.7602 73.4892 12.9864 74.1881 13.3781C74.3734 13.4817 74.6032 13.4817 74.788 13.377C75.4818 12.9859 76.3621 12.7597 77.4284 12.6984C77.4414 12.6978 77.4551 12.6973 77.4682 12.6973H77.6189C77.6314 12.6973 77.6445 12.6973 77.657 12.6984C80.7483 12.8689 82.2945 14.4478 82.2945 17.4345V23.0855C82.2945 23.4187 82.0187 23.6889 81.6786 23.6889H79.5393C79.1992 23.6889 78.9234 23.4187 78.9234 23.0855V17.4345C78.9234 16.2991 78.4952 15.718 77.6382 15.6902H77.4488C76.6607 15.7175 76.2364 16.2094 76.1756 17.1654C76.1744 17.1794 76.1744 17.1933 76.1744 17.2072L76.1733 17.2078Z" fill="#023835"/>
<path d="M82.832 18.2903C82.8389 17.2373 83.1232 16.2913 83.6856 15.4517C84.2475 14.5915 85.0061 13.9174 85.9609 13.4288C86.9157 12.9335 87.9308 12.6855 89.0056 12.6855C89.8273 12.6855 90.607 12.8265 91.3445 13.109C92.0747 13.3708 92.7384 13.7664 93.3355 14.2957C93.9252 14.8255 94.3818 15.4311 94.7048 16.1119C95.0278 16.7933 95.1893 17.5432 95.1893 18.3621C95.1893 19.1811 95.0244 19.9071 94.694 20.6018C94.371 21.2899 93.9178 21.8921 93.3349 22.408C92.752 22.9312 92.0884 23.3267 91.344 23.5947C90.5922 23.8632 89.8125 23.997 89.005 23.997C88.1975 23.997 87.4383 23.8632 86.6814 23.5958C86.6785 23.5947 86.6757 23.5936 86.6729 23.5925L86.4346 23.4911L86.3686 23.4627C86.2856 23.427 86.1923 23.4872 86.1923 23.5758V27.6194C86.1923 27.6879 86.1355 27.7431 86.0661 27.7425L84.0814 27.7364C83.3905 27.7342 82.832 27.1848 82.832 26.5085V18.2892V18.2903ZM86.1923 18.3627C86.1923 18.8513 86.322 19.2914 86.5819 19.6837C86.8418 20.0898 87.1892 20.4129 87.6248 20.6536C88.053 20.8943 88.5131 21.0146 89.005 21.0146C89.4969 21.0146 89.9598 20.8943 90.3954 20.6536C90.831 20.4129 91.1785 20.0892 91.4384 19.6837C91.6982 19.2847 91.8279 18.8441 91.8279 18.3627C91.8279 17.6334 91.547 17.0005 90.9851 16.4634C90.4301 15.9336 89.7699 15.669 89.0044 15.669C88.239 15.669 87.589 15.9342 87.0345 16.4634C86.4727 16.9933 86.1918 17.6262 86.1918 18.3627H86.1923Z" fill="#023835"/>
<path d="M104.723 23.5568C104.723 23.4688 104.631 23.4092 104.548 23.4432C104.41 23.5 104.304 23.5407 104.227 23.5652C103.483 23.8471 102.703 23.9886 101.888 23.9886C100.814 23.9886 99.7991 23.744 98.8437 23.256C97.8883 22.7607 97.1297 22.0866 96.5684 21.233C95.9998 20.3662 95.7148 19.3995 95.7148 18.3326C95.7148 17.5276 95.8798 16.7777 96.2102 16.0824C96.54 15.3943 96.9932 14.796 97.5693 14.2868C98.138 13.7775 98.7982 13.3887 99.55 13.1207C100.301 12.8388 101.081 12.6973 101.889 12.6973C102.697 12.6973 103.469 12.8349 104.228 13.1101C104.987 13.3853 105.647 13.7775 106.209 14.2868C106.798 14.8099 107.255 15.4083 107.578 16.0824C107.908 16.7777 108.073 17.5276 108.073 18.3326L108.065 22.7373C108.064 23.2733 107.617 23.7056 107.07 23.7006L104.848 23.68C104.779 23.6794 104.723 23.6242 104.723 23.5568H104.723ZM99.4653 17.0011C99.2054 17.4072 99.0757 17.8507 99.0757 18.3326C99.0757 19.0619 99.3566 19.6915 99.9185 20.2213C100.473 20.7444 101.13 21.0057 101.888 21.0057C102.647 21.0057 103.314 20.7444 103.869 20.2213C104.431 19.6915 104.712 19.0619 104.712 18.3326C104.712 17.8513 104.582 17.4072 104.322 17.0011C104.062 16.5949 103.715 16.2718 103.279 16.0311C102.851 15.7971 102.387 15.6801 101.889 15.6801C101.391 15.6801 100.944 15.7971 100.509 16.0311C100.073 16.2718 99.7257 16.5955 99.4658 17.0011H99.4653Z" fill="#023835"/>
<path d="M109.838 20.9606C110.075 20.6536 110.517 20.5756 110.844 20.7901C111.397 21.1539 112.033 21.3356 112.75 21.3356C113.755 21.3356 114.257 21.0464 114.257 20.4687C114.257 20.1661 113.979 19.9422 113.424 19.7979C113.031 19.7087 112.406 19.5539 111.549 19.3332C110.853 19.1544 110.267 18.824 109.789 18.3427C109.318 17.868 109.084 17.1387 109.084 16.1548C109.084 15.3982 109.277 14.7581 109.663 14.2349C110.056 13.7124 110.566 13.3268 111.19 13.0789C111.83 12.8243 112.529 12.6973 113.287 12.6973C113.715 12.6973 114.151 12.7558 114.593 12.8728C115.071 13.0171 115.499 13.1965 115.879 13.4093C116.009 13.4806 116.135 13.5552 116.255 13.6321C116.652 13.8851 116.705 14.435 116.369 14.762L115.541 15.5687C115.311 15.7932 114.958 15.8467 114.67 15.6985C114.256 15.4863 113.816 15.3804 113.35 15.3804C112.585 15.3804 112.202 15.5904 112.202 16.01C112.202 16.3883 112.486 16.6534 113.056 16.8044C113.681 16.9693 114.31 17.1242 114.941 17.2691C115.637 17.4412 116.216 17.7577 116.68 18.2184C117.15 18.6864 117.386 19.4224 117.386 20.4269C117.386 21.1768 117.182 21.8236 116.774 22.3674C116.367 22.9178 115.822 23.3273 115.142 23.5958C114.46 23.8777 113.755 24.0193 113.024 24.0193C112.413 24.0193 111.862 23.9708 111.37 23.875C110.878 23.7853 110.418 23.6343 109.989 23.4209C109.753 23.3067 109.51 23.1719 109.261 23.0164C108.894 22.7869 108.804 22.2977 109.068 21.9573L109.837 20.9612L109.838 20.9606Z" fill="#023835"/>
<path d="M120.619 23.2473H119.037C118.978 23.2473 118.924 23.2785 118.895 23.3292L118.553 23.937C118.524 23.9877 118.47 24.0189 118.41 24.0189H117.656C117.534 24.0189 117.455 23.8902 117.514 23.7844L119.687 19.8683C119.748 19.7574 119.91 19.7574 119.971 19.8683L122.141 23.7844C122.2 23.8902 122.122 24.0189 121.998 24.0189H121.244C121.185 24.0189 121.131 23.9877 121.102 23.937L120.76 23.3292C120.731 23.2785 120.677 23.2473 120.618 23.2473H120.619ZM120.131 22.2094L119.971 21.9241C119.91 21.8149 119.749 21.8144 119.687 21.9241L119.526 22.2094C119.465 22.3152 119.544 22.445 119.667 22.445H119.99C120.113 22.445 120.191 22.3152 120.132 22.2094H120.131Z" fill="#023835"/>
<path d="M122.68 19.6758H123.264C123.403 19.6758 123.516 19.7861 123.516 19.9226V23.7718C123.516 23.9083 123.402 24.0192 123.263 24.0186L122.679 24.0169C122.54 24.0169 122.428 23.9061 122.428 23.7701V19.9226C122.428 19.7861 122.54 19.6758 122.68 19.6758Z" fill="#023835"/>
</svg>
