<?xml version="1.0" encoding="UTF-8"?>
<svg id="Layer_1" data-name="Layer 1" xmlns="http://www.w3.org/2000/svg" viewBox="0 0 2268.43 628.22">
  <defs>
    <style>
      .cls-1 {
        fill: #141414;
        stroke-width: 0px;
      }
    </style>
  </defs>
  <g>
    <path class="cls-1" d="M362.4,591.99c-71.83,0-139.35-27.97-190.14-78.76-50.79-50.79-78.76-118.31-78.76-190.14s27.97-139.35,78.76-190.14c50.79-50.79,118.31-78.76,190.14-78.76s139.35,27.97,190.14,78.76c50.79,50.79,78.76,118.31,78.76,190.14s-27.97,139.35-78.76,190.14c-50.79,50.79-118.31,78.76-190.14,78.76ZM362.4,62.27c-143.82,0-260.82,117-260.82,260.82s117,260.82,260.82,260.82,260.82-117,260.82-260.82S506.22,62.27,362.4,62.27Z"/>
    <g>
      <path class="cls-1" d="M198.22,377.39l142.08-180.83c12.05-15.34,31.62-15.38,43.71-.1l142.5,180.1c19.5,24.65,5.78,66.9-21.75,66.97l-24.56.06c-12.37.03-23.55-9.31-28.45-23.72-10.59-31.13-32.27-57.68-64.97-69.77-14.21-5.25-29.38-4.79-43.47.99-31.2,12.81-51.93,38.79-62.14,69.12-4.87,14.46-16.01,23.92-28.41,23.95l-32.58.08c-27.54.07-41.4-42.13-21.96-66.87Z"/>
      <path class="cls-1" d="M402.18,444.45h-71.82c-9.01,0-14.05-13.12-8.54-22.16,1.44-2.37,3.01-4.64,4.72-6.82,21.87-27.83,57.38-27.91,79.32-.18,1.76,2.22,3.37,4.55,4.85,6.97,5.52,9.05.5,22.19-8.53,22.19Z"/>
    </g>
  </g>
  <g>
    <g>
      <path class="cls-1" d="M936.92,377.39c6.52,6.75,5.98,17.61-1.19,23.66-4.95,4.17-10.17,7.96-15.68,11.37-19.76,12.23-41.38,18.34-64.84,18.34s-44.96-6.11-64.84-18.34c-20.01-12.35-35.82-28.96-47.42-49.83-11.61-20.99-17.41-44.03-17.41-69.1s5.8-48.29,17.41-69.29c11.61-20.87,27.42-37.54,47.42-50.02,19.88-12.23,41.5-18.34,64.84-18.34s45.08,6.11,64.84,18.34c5.39,3.34,10.48,7.01,15.27,11.01,7.21,6.02,7.73,16.92,1.2,23.68l-19.62,20.31c-5.9,6.1-15.51,6.62-22.03,1.2-1.63-1.35-3.24-2.55-4.83-3.58-10.87-7.29-22.48-10.93-34.83-10.93s-23.96,3.64-34.83,10.93c-10.62,7.29-19.08,16.92-25.38,28.9-6.18,12.11-9.26,24.7-9.26,37.79s3.15,25.69,9.45,37.79c6.3,11.98,14.76,21.61,25.38,28.9,10.62,7.29,22.17,10.93,34.64,10.93s24.02-3.64,34.64-10.93c1.89-1.28,3.75-2.68,5.56-4.22,6.46-5.48,16.11-4.85,21.99,1.24l19.51,20.19Z"/>
      <path class="cls-1" d="M1000.09,417.8c-16.8-8.89-30.14-21.06-40.01-36.5-10-15.56-15.01-32.98-15.01-52.24,0-14.45,2.9-27.91,8.71-40.39,5.8-12.47,13.77-23.28,23.9-32.42,10.25-9.26,21.92-16.36,35.01-21.3,13.34-4.94,26.98-7.41,40.94-7.41s27.79,2.47,41.13,7.41c12.97,4.69,24.64,11.73,35.01,21.12,10.25,9.39,18.22,20.26,23.9,32.6,5.8,12.48,8.71,25.94,8.71,40.39s-2.84,28.16-8.52,40.39c-5.68,12.35-13.71,23.28-24.08,32.79-10.5,9.39-22.17,16.49-35.01,21.3-12.97,5.06-26.68,7.6-41.13,7.6-18.9,0-36.74-4.45-53.54-13.34ZM1018.99,363.15c9.75,9.51,21.3,14.26,34.64,14.26s25.07-4.75,34.83-14.26c9.88-9.51,14.82-20.87,14.82-34.09,0-8.64-2.29-16.61-6.85-23.9-4.57-7.29-10.68-13.09-18.34-17.41-7.53-4.32-15.69-6.48-24.45-6.48s-16.61,2.16-24.27,6.48c-7.66,4.32-13.77,10.13-18.34,17.41-4.57,7.29-6.85,15.25-6.85,23.9,0,13.22,4.94,24.58,14.82,34.09Z"/>
      <path class="cls-1" d="M1339.48,308.87v105.5c0,5.98-4.85,10.83-10.83,10.83h-37.8c-5.98,0-10.83-4.85-10.83-10.83v-105.5c0-.25,0-.51-.02-.76-1.08-17.16-8.54-25.99-22.39-26.48h-3.33c-15.07.5-22.6,10.93-22.6,31.31v101.43c0,5.98-4.85,10.83-10.83,10.83h-37.62c-5.98,0-10.83-4.85-10.83-10.83v-101.43c0-53.61,27.18-81.95,81.55-85.01.22-.01.45-.02.67-.02h2.65c.23,0,.47,0,.7.02,18.77,1.11,34.31,5.17,46.6,12.2,3.26,1.86,7.3,1.86,10.55-.02,12.2-7.02,27.68-11.08,46.43-12.18.23-.01.47-.02.7-.02h2.65c.22,0,.45,0,.67.02,54.36,3.06,81.55,31.4,81.55,85.01v101.43c0,5.98-4.85,10.83-10.83,10.83h-37.62c-5.98,0-10.83-4.85-10.83-10.83v-101.43c0-20.38-7.53-30.81-22.6-31.31h-3.33c-13.86.49-21.32,9.32-22.39,26.48-.02.25-.02.5-.02.75Z"/>
      <path class="cls-1" d="M1456.56,328.32c.12-18.9,5.12-35.88,15.01-50.95,9.88-15.44,23.22-27.54,40.01-36.31,16.79-8.89,34.64-13.34,53.54-13.34,14.45,0,28.16,2.53,41.13,7.6,12.84,4.7,24.51,11.8,35.01,21.3,10.37,9.51,18.4,20.38,24.08,32.6,5.68,12.23,8.52,25.69,8.52,40.39s-2.9,27.73-8.71,40.2c-5.68,12.35-13.65,23.16-23.9,32.42-10.25,9.39-21.92,16.49-35.01,21.3-13.22,4.82-26.93,7.22-41.13,7.22s-27.55-2.4-40.86-7.2c-.05-.02-.1-.04-.15-.06l-4.19-1.82-1.16-.51c-1.46-.64-3.1.44-3.1,2.03v72.58c0,1.23-1,2.22-2.22,2.21l-34.9-.11c-12.15-.04-21.97-9.9-21.97-22.04v-147.53ZM1515.65,329.62c0,8.77,2.28,16.67,6.85,23.71,4.57,7.29,10.68,13.09,18.34,17.41,7.53,4.32,15.62,6.48,24.27,6.48s16.79-2.16,24.45-6.48c7.66-4.32,13.77-10.13,18.34-17.41,4.57-7.16,6.85-15.07,6.85-23.71,0-13.09-4.94-24.45-14.82-34.09-9.76-9.51-21.37-14.26-34.83-14.26s-24.89,4.76-34.64,14.26c-9.88,9.51-14.82,20.87-14.82,34.09Z"/>
      <path class="cls-1" d="M1841.52,422.83c0-1.58-1.62-2.65-3.08-2.04-2.42,1.02-4.29,1.75-5.63,2.19-13.09,5.06-26.8,7.6-41.13,7.6-18.9,0-36.74-4.39-53.54-13.15-16.8-8.89-30.14-20.99-40.01-36.31-10-15.56-15.01-32.91-15.01-52.06,0-14.45,2.9-27.91,8.71-40.39,5.8-12.35,13.77-23.09,23.9-32.23,10-9.14,21.61-16.12,34.83-20.93,13.21-5.06,26.92-7.6,41.13-7.6s27.79,2.47,41.13,7.41c13.34,4.94,24.95,11.98,34.83,21.12,10.37,9.39,18.4,20.13,24.08,32.23,5.8,12.48,8.71,25.94,8.71,40.39l-.15,79.06c-.02,9.62-7.87,17.38-17.49,17.29l-39.08-.37c-1.21-.01-2.19-1-2.19-2.21h0ZM1749.07,305.16c-4.57,7.29-6.85,15.25-6.85,23.9,0,13.09,4.94,24.39,14.82,33.9,9.75,9.39,21.3,14.08,34.64,14.08s25.07-4.69,34.83-14.08c9.88-9.51,14.82-20.81,14.82-33.9,0-8.64-2.29-16.61-6.85-23.9-4.57-7.29-10.68-13.09-18.34-17.41-7.53-4.2-15.69-6.3-24.45-6.3s-16.61,2.1-24.27,6.3c-7.66,4.32-13.77,10.13-18.34,17.41Z"/>
      <path class="cls-1" d="M1931.47,376.24c4.17-5.51,11.94-6.91,17.68-3.06,9.73,6.53,20.91,9.79,33.53,9.79,17.66,0,26.49-5.19,26.49-15.56,0-5.43-4.88-9.45-14.64-12.04-6.92-1.6-17.91-4.38-32.98-8.34-12.23-3.21-22.54-9.14-30.94-17.78-8.28-8.52-12.41-21.61-12.41-39.27,0-13.58,3.4-25.07,10.19-34.46,6.91-9.38,15.87-16.3,26.86-20.75,11.24-4.57,23.53-6.85,36.87-6.85,7.53,0,15.19,1.05,22.97,3.15,8.4,2.59,15.93,5.81,22.6,9.63,2.29,1.28,4.5,2.62,6.62,4,6.98,4.54,7.92,14.41,2.01,20.28l-14.56,14.48c-4.06,4.03-10.26,4.99-15.33,2.33-7.28-3.81-15.01-5.71-23.2-5.71-13.46,0-20.19,3.77-20.19,11.3,0,6.79,5,11.55,15.01,14.26,10.99,2.96,22.05,5.74,33.16,8.34,12.23,3.09,22.42,8.77,30.57,17.04,8.27,8.4,12.41,21.61,12.41,39.64,0,13.46-3.58,25.07-10.75,34.83-7.16,9.88-16.74,17.23-28.71,22.05-11.98,5.06-24.39,7.6-37.24,7.6-10.75,0-20.44-.87-29.09-2.59-8.65-1.61-16.74-4.32-24.27-8.15-4.16-2.05-8.43-4.47-12.81-7.26-6.46-4.12-8.03-12.9-3.4-19.01l13.53-17.88Z"/>
    </g>
    <g>
      <path class="cls-1" d="M2121.06,417.28h-27.81c-1.04,0-1.99.56-2.5,1.47l-6.02,10.91c-.5.91-1.46,1.47-2.5,1.47h-13.26c-2.16,0-3.54-2.31-2.5-4.21l38.2-70.29c1.08-1.99,3.93-1.99,5.01,0l38.15,70.29c1.03,1.9-.34,4.21-2.51,4.21h-13.26c-1.04,0-1.99-.56-2.5-1.47l-6.02-10.91c-.5-.91-1.46-1.47-2.5-1.47ZM2112.49,398.65l-2.82-5.12c-1.08-1.96-3.9-1.97-4.99,0l-2.84,5.12c-1.06,1.9.32,4.23,2.49,4.23h5.67c2.17,0,3.54-2.33,2.5-4.23Z"/>
      <path class="cls-1" d="M2157.3,353.18h10.27c2.45,0,4.43,1.98,4.43,4.43v69.09c0,2.45-1.99,4.44-4.44,4.43l-10.27-.03c-2.44,0-4.42-1.99-4.42-4.43v-69.06c0-2.45,1.98-4.43,4.43-4.43Z"/>
    </g>
  </g>
</svg>