<?xml version="1.0" encoding="UTF-8"?>
<svg id="Layer_1" data-name="Layer 1" xmlns="http://www.w3.org/2000/svg" viewBox="0 0 650 650">
  <defs>
    <style>
      .cls-1 {
        fill: #141414;
        stroke-width: 0px;
      }
    </style>
  </defs>
  <path class="cls-1" d="M335.88,568.32c-64.2,0-124.55-25-169.95-70.4-45.4-45.39-70.4-105.75-70.4-169.95s25-124.55,70.4-169.95c45.39-45.4,105.75-70.4,169.95-70.4s124.55,25,169.95,70.4c45.39,45.39,70.39,105.75,70.39,169.95s-25,124.55-70.39,169.95c-45.39,45.4-105.75,70.4-169.95,70.4ZM335.88,94.85c-128.55,0-233.12,104.58-233.12,233.12s104.58,233.12,233.12,233.12,233.12-104.58,233.12-233.12-104.58-233.12-233.12-233.12Z"/>
  <g>
    <path class="cls-1" d="M189.13,376.51l126.99-161.62c10.77-13.71,28.26-13.75,39.07-.09l127.37,160.97c17.43,22.03,5.16,59.79-19.44,59.86l-21.95.06c-11.06.03-21.05-8.32-25.43-21.2-9.46-27.83-28.84-51.56-58.07-62.36-12.7-4.69-26.26-4.28-38.85.89-27.89,11.45-46.41,34.67-55.54,61.78-4.35,12.93-14.31,21.38-25.39,21.41l-29.12.07c-24.62.06-37-37.66-19.62-59.77Z"/>
    <path class="cls-1" d="M371.44,436.45h-64.19c-8.05,0-12.56-11.72-7.64-19.81,1.29-2.11,2.69-4.15,4.22-6.09,19.54-24.88,51.28-24.95,70.9-.16,1.57,1.98,3.01,4.06,4.33,6.23,4.93,8.09.44,19.83-7.62,19.83Z"/>
  </g>
</svg>