<svg width="84" height="84" viewBox="0 0 84 84" fill="none" xmlns="http://www.w3.org/2000/svg">
<path d="M25.7797 70.2086L13.4471 71.5316C12.4005 71.6446 11.6617 70.8901 11.7973 69.847L13.3845 57.563C13.6018 55.882 15.7506 54.8215 16.7902 55.882L17.7168 56.8277C18.1844 57.304 18.2435 58.0881 17.8732 58.82C17.0701 60.402 16.8614 62.2378 17.6264 63.9554C17.9584 64.7012 18.5477 65.2696 19.3022 65.5965C20.9729 66.3197 22.7566 66.1406 24.3107 65.3931C25.0531 65.0367 25.8371 65.1097 26.3048 65.5878L27.5356 66.8429C28.5752 67.9034 27.4678 70.0278 25.7797 70.2086Z" fill="#B7B777"/>
<path d="M20.6873 59.8059L23.3924 62.5788C23.7314 62.9265 23.415 63.6149 22.8586 63.7435C22.7126 63.7766 22.5666 63.8027 22.4171 63.8183C20.5187 64.0217 19.1783 62.6535 19.4234 60.7621C19.4426 60.6108 19.4721 60.4613 19.5104 60.3118C19.6529 59.7572 20.3483 59.4565 20.6873 59.8059Z" fill="#B7B777"/>
<path d="M10.5964 50.4818L0.939258 42.697C0.120442 42.0364 0.130873 40.9812 0.963596 40.3397L10.772 32.7756C12.1141 31.7412 14.3845 32.5096 14.3689 33.9943L14.355 35.319C14.348 35.9866 13.8369 36.5828 13.0563 36.8367C11.37 37.386 9.92363 38.5386 9.2491 40.2945C8.95704 41.0576 8.97095 41.8765 9.27344 42.6396C9.94275 44.3312 11.33 45.4664 12.959 46.0366C13.7361 46.3095 14.2385 46.9163 14.2315 47.5856L14.2142 49.3431C14.1985 50.8278 11.9142 51.5475 10.5929 50.4818H10.5964Z" fill="#B7B777"/>
<path d="M14.3502 39.5249L14.3015 43.3981C14.2963 43.8832 13.5852 44.1474 13.1002 43.8432C12.9733 43.7632 12.8516 43.678 12.7351 43.5842C11.2487 42.3864 11.2679 40.4706 12.7786 39.3058C12.8985 39.2119 13.0254 39.1267 13.1576 39.0485C13.6496 38.7564 14.3554 39.0363 14.3484 39.5231L14.3502 39.5249Z" fill="#B7B777"/>
<path d="M13.8107 25.7993L12.4878 13.4666C12.3748 12.4201 13.1293 11.6812 14.1723 11.8168L26.4563 13.404C28.1374 13.6213 29.1979 15.7701 28.1374 16.8097L27.1917 17.7363C26.7153 18.2039 25.9313 18.263 25.1994 17.8927C23.6174 17.0896 21.7816 16.881 20.064 17.6459C19.3182 17.9779 18.7497 18.5673 18.4229 19.3218C17.6997 20.9924 17.8787 22.7761 18.6263 24.3303C18.9827 25.0726 18.9096 25.8566 18.4316 26.3243L17.1764 27.5551C16.1159 28.5947 13.9915 27.4873 13.8107 25.7993Z" fill="#B7B777"/>
<path d="M24.2121 20.7068L21.4392 23.4119C21.0916 23.7509 20.4031 23.4345 20.2745 22.8782C20.2414 22.7321 20.2154 22.5861 20.1997 22.4366C19.9963 20.5382 21.3645 19.1979 23.2559 19.443C23.4072 19.4621 23.5567 19.4917 23.7062 19.5299C24.2608 19.6725 24.5615 20.3678 24.2121 20.7068Z" fill="#B7B777"/>
<path d="M33.5357 10.6159L41.3206 0.958789C41.9812 0.139973 43.0364 0.150404 43.6779 0.983127L51.242 10.7915C52.2764 12.1336 51.508 14.4041 50.0233 14.3884L48.6986 14.3745C48.031 14.3675 47.4347 13.8564 47.1809 13.0759C46.6316 11.3896 45.479 9.94316 43.7231 9.26863C42.9599 8.97657 42.1411 8.99048 41.3779 9.29297C39.6864 9.96228 38.5512 11.3496 37.981 12.9785C37.7081 13.7556 37.1013 14.258 36.432 14.2511L34.6744 14.2337C33.1898 14.218 32.4701 11.9337 33.5357 10.6125V10.6159Z" fill="#B7B777"/>
<path d="M44.4911 14.3697L40.6178 14.321C40.1327 14.3158 39.8685 13.6048 40.1727 13.1197C40.2527 12.9928 40.3379 12.8711 40.4318 12.7547C41.6296 11.2683 43.5453 11.2874 44.7101 12.7981C44.804 12.9181 44.8892 13.045 44.9674 13.1771C45.2595 13.6691 44.9796 14.3749 44.4928 14.3679L44.4911 14.3697Z" fill="#B7B777"/>
<path d="M58.2217 13.8303L70.5544 12.5073C71.6009 12.3943 72.3398 13.1488 72.2042 14.1919L70.6169 26.4758C70.3996 28.1569 68.2509 29.2174 67.2113 28.1569L66.2847 27.2112C65.8171 26.7349 65.758 25.9508 66.1282 25.2189C66.9314 23.6369 67.14 21.8011 66.3751 20.0835C66.0431 19.3377 65.4537 18.7692 64.6992 18.4424C63.0286 17.7192 61.2449 17.8983 59.6907 18.6458C58.9484 19.0022 58.1644 18.9292 57.6967 18.4511L56.4659 17.1959C55.4263 16.1355 56.5337 14.0111 58.2217 13.8303Z" fill="#B7B777"/>
<path d="M63.3136 24.2316L60.6085 21.4588C60.2695 21.1111 60.5859 20.4227 61.1422 20.294C61.2882 20.261 61.4343 20.2349 61.5838 20.2193C63.4822 20.0159 64.8225 21.384 64.5774 23.2755C64.5583 23.4267 64.5287 23.5762 64.4905 23.7257C64.3479 24.2803 63.6526 24.5811 63.3136 24.2316Z" fill="#B7B777"/>
<path d="M73.4054 33.5553L83.0625 41.3401C83.8813 42.0007 83.8709 43.056 83.0382 43.6975L73.2298 51.2615C71.8877 52.2959 69.6172 51.5275 69.6329 50.0428L69.6468 48.7181C69.6538 48.0506 70.1649 47.4543 70.9454 47.2005C72.6317 46.6511 74.0781 45.4985 74.7527 43.7427C75.0447 42.9795 75.0308 42.1607 74.7283 41.3975C74.059 39.706 72.6717 38.5707 71.0428 38.0005C70.2657 37.7276 69.7633 37.1209 69.7702 36.4516L69.7876 34.694C69.8033 33.2093 72.0876 32.4896 73.4088 33.5553H73.4054Z" fill="#B7B777"/>
<path d="M69.6484 44.5106L69.6971 40.6373C69.7023 40.1523 70.4134 39.888 70.8984 40.1923C71.0253 40.2722 71.147 40.3574 71.2635 40.4513C72.7498 41.6491 72.7307 43.5649 71.22 44.7296C71.1 44.8235 70.9731 44.9087 70.841 44.9869C70.349 45.279 69.6432 44.9991 69.6502 44.5123L69.6484 44.5106Z" fill="#B7B777"/>
<path d="M70.1891 58.2412L71.5121 70.5739C71.6251 71.6205 70.8706 72.3593 69.8275 72.2237L57.5435 70.6365C55.8624 70.4192 54.802 68.2704 55.8624 67.2308L56.8081 66.3042C57.2845 65.8366 58.0685 65.7775 58.8004 66.1478C60.3824 66.9509 62.2182 67.1596 63.9358 66.3946C64.6816 66.0626 65.2501 65.4733 65.5769 64.7188C66.3001 63.0481 66.1211 61.2644 65.3735 59.7103C65.0172 58.9679 65.0902 58.1839 65.5683 57.7162L66.8234 56.4854C67.8839 55.4458 70.0083 56.5532 70.1891 58.2412Z" fill="#B7B777"/>
<path d="M59.7903 63.3331L62.5631 60.628C62.9108 60.289 63.5993 60.6054 63.7279 61.1617C63.761 61.3078 63.787 61.4538 63.8027 61.6033C64.0061 63.5017 62.6379 64.8421 60.7465 64.5969C60.5952 64.5778 60.4457 64.5483 60.2962 64.51C59.7416 64.3675 59.4409 63.6721 59.7903 63.3331Z" fill="#B7B777"/>
<path d="M50.4623 73.421L42.6775 83.0781C42.0169 83.8969 40.9616 83.8865 40.3201 83.0538L32.7561 73.2454C31.7217 71.9033 32.4901 69.6329 33.9747 69.6485L35.2995 69.6624C35.967 69.6694 36.5633 70.1805 36.8171 70.9611C37.3665 72.6474 38.5191 74.0938 40.2749 74.7683C41.0381 75.0603 41.8569 75.0464 42.6201 74.7439C44.3116 74.0746 45.4469 72.6873 46.0171 71.0584C46.29 70.2813 46.8967 69.7789 47.566 69.7859L49.3236 69.8032C50.8083 69.8189 51.528 72.1032 50.4623 73.4245V73.421Z" fill="#B7B777"/>
<path d="M39.5092 69.668L43.3825 69.7166C43.8676 69.7219 44.1318 70.4329 43.8276 70.9179C43.7476 71.0448 43.6624 71.1665 43.5685 71.283C42.3707 72.7694 40.4549 72.7503 39.2902 71.2395C39.1963 71.1196 39.1111 70.9927 39.0329 70.8606C38.7408 70.3686 39.0207 69.6628 39.5075 69.6697L39.5092 69.668Z" fill="#B7B777"/>
</svg>
