<?xml version="1.0" encoding="UTF-8"?>
<svg id="Layer_1" data-name="Layer 1" xmlns="http://www.w3.org/2000/svg" viewBox="0 0 650 650">
  <defs>
    <style>
      .cls-1 {
        fill: #141414;
        stroke-width: 0px;
      }
    </style>
  </defs>
  <g>
    <g id="_Radial_Repeat_" data-name="&amp;lt;Radial Repeat&amp;gt;">
      <g>
        <path class="cls-1" d="M231.69,490.13l-70.94,7.61c-6.02.65-10.27-3.69-9.49-9.69l9.13-70.66c1.25-9.67,13.61-15.77,19.59-9.67l5.33,5.44c2.69,2.74,3.03,7.25.9,11.46-4.62,9.1-5.82,19.66-1.42,29.54,1.91,4.29,5.3,7.56,9.64,9.44,9.61,4.16,19.87,3.13,28.81-1.17,4.27-2.05,8.78-1.63,11.47,1.12l7.08,7.22c5.98,6.1-.39,18.32-10.1,19.36Z"/>
        <path class="cls-1" d="M202.4,430.3l15.56,15.95c1.95,2,.13,5.96-3.07,6.7-.84.19-1.68.34-2.54.43-10.92,1.17-18.63-6.7-17.22-17.58.11-.87.28-1.73.5-2.59.82-3.19,4.82-4.92,6.77-2.91Z"/>
      </g>
    </g>
    <g id="_Radial_Repeat_-2" data-name="&amp;lt;Radial Repeat&amp;gt;">
      <g>
        <path class="cls-1" d="M144.36,376.66l-55.55-44.78c-4.71-3.8-4.65-9.87.14-13.56l56.42-43.51c7.72-5.95,20.78-1.53,20.69,7.01l-.08,7.62c-.04,3.84-2.98,7.27-7.47,8.73-9.7,3.16-18.02,9.79-21.9,19.89-1.68,4.39-1.6,9.1.14,13.49,3.85,9.73,11.83,16.26,21.2,19.54,4.47,1.57,7.36,5.06,7.32,8.91l-.1,10.11c-.09,8.54-13.23,12.68-20.83,6.55Z"/>
        <path class="cls-1" d="M165.96,313.64l-.28,22.28c-.03,2.79-4.12,4.31-6.91,2.56-.73-.46-1.43-.95-2.1-1.49-8.55-6.89-8.44-17.91.25-24.61.69-.54,1.42-1.03,2.18-1.48,2.83-1.68,6.89-.07,6.85,2.73Z"/>
      </g>
    </g>
    <g id="_Radial_Repeat_-3" data-name="&amp;lt;Radial Repeat&amp;gt;">
      <g>
        <path class="cls-1" d="M162.85,234.67l-7.61-70.94c-.65-6.02,3.69-10.27,9.69-9.49l70.66,9.13c9.67,1.25,15.77,13.61,9.67,19.59l-5.44,5.33c-2.74,2.69-7.25,3.03-11.46.9-9.1-4.62-19.66-5.82-29.54-1.42-4.29,1.91-7.56,5.3-9.44,9.64-4.16,9.61-3.13,19.87,1.17,28.81,2.05,4.27,1.63,8.78-1.12,11.47l-7.22,7.08c-6.1,5.98-18.32-.39-19.36-10.1Z"/>
        <path class="cls-1" d="M222.67,205.38l-15.95,15.56c-2,1.95-5.96.13-6.7-3.07-.19-.84-.34-1.68-.43-2.54-1.17-10.92,6.7-18.63,17.58-17.22.87.11,1.73.28,2.59.5,3.19.82,4.92,4.82,2.91,6.77Z"/>
      </g>
    </g>
    <g id="_Radial_Repeat_-4" data-name="&amp;lt;Radial Repeat&amp;gt;">
      <g>
        <path class="cls-1" d="M276.32,147.34l44.78-55.55c3.8-4.71,9.87-4.65,13.56.14l43.51,56.42c5.95,7.72,1.53,20.78-7.01,20.69l-7.62-.08c-3.84-.04-7.27-2.98-8.73-7.47-3.16-9.7-9.79-18.02-19.89-21.9-4.39-1.68-9.1-1.6-13.49.14-9.73,3.85-16.26,11.83-19.54,21.2-1.57,4.47-5.06,7.36-8.91,7.32l-10.11-.1c-8.54-.09-12.68-13.23-6.55-20.83Z"/>
        <path class="cls-1" d="M339.33,168.93l-22.28-.28c-2.79-.03-4.31-4.12-2.56-6.91.46-.73.95-1.43,1.49-2.1,6.89-8.55,17.91-8.44,24.61.25.54.69,1.03,1.42,1.48,2.18,1.68,2.83.07,6.89-2.73,6.85Z"/>
      </g>
    </g>
    <g id="_Radial_Repeat_-5" data-name="&amp;lt;Radial Repeat&amp;gt;">
      <g>
        <path class="cls-1" d="M418.31,165.82l70.94-7.61c6.02-.65,10.27,3.69,9.49,9.69l-9.13,70.66c-1.25,9.67-13.61,15.77-19.59,9.67l-5.33-5.44c-2.69-2.74-3.03-7.25-.9-11.46,4.62-9.1,5.82-19.66,1.42-29.54-1.91-4.29-5.3-7.56-9.64-9.44-9.61-4.16-19.87-3.13-28.81,1.17-4.27,2.05-8.78,1.63-11.47-1.12l-7.08-7.22c-5.98-6.1.39-18.32,10.1-19.36Z"/>
        <path class="cls-1" d="M447.6,225.65l-15.56-15.95c-1.95-2-.13-5.96,3.07-6.7.84-.19,1.68-.34,2.54-.43,10.92-1.17,18.63,6.7,17.22,17.58-.11.87-.28,1.73-.5,2.59-.82,3.19-4.82,4.92-6.77,2.91Z"/>
      </g>
    </g>
    <g id="_Radial_Repeat_-6" data-name="&amp;lt;Radial Repeat&amp;gt;">
      <g>
        <path class="cls-1" d="M505.64,279.29l55.55,44.78c4.71,3.8,4.65,9.87-.14,13.56l-56.42,43.51c-7.72,5.95-20.78,1.53-20.69-7.01l.08-7.62c.04-3.84,2.98-7.27,7.47-8.73,9.7-3.16,18.02-9.79,21.9-19.89,1.68-4.39,1.6-9.1-.14-13.49-3.85-9.73-11.83-16.26-21.2-19.54-4.47-1.57-7.36-5.06-7.32-8.91l.1-10.11c.09-8.54,13.23-12.68,20.83-6.55Z"/>
        <path class="cls-1" d="M484.04,342.31l.28-22.28c.03-2.79,4.12-4.31,6.91-2.56.73.46,1.43.95,2.1,1.49,8.55,6.89,8.44,17.91-.25,24.61-.69.54-1.42,1.03-2.18,1.48-2.83,1.68-6.89.07-6.85-2.73Z"/>
      </g>
    </g>
    <g id="_Radial_Repeat_-7" data-name="&amp;lt;Radial Repeat&amp;gt;">
      <g>
        <path class="cls-1" d="M487.15,421.28l7.61,70.94c.65,6.02-3.69,10.27-9.69,9.49l-70.66-9.13c-9.67-1.25-15.77-13.61-9.67-19.59l5.44-5.33c2.74-2.69,7.25-3.03,11.46-.9,9.1,4.62,19.66,5.82,29.54,1.42,4.29-1.91,7.56-5.3,9.44-9.64,4.16-9.61,3.13-19.87-1.17-28.81-2.05-4.27-1.63-8.78,1.12-11.47l7.22-7.08c6.1-5.98,18.32.39,19.36,10.1Z"/>
        <path class="cls-1" d="M427.33,450.57l15.95-15.56c2-1.95,5.96-.13,6.7,3.07.19.84.34,1.68.43,2.54,1.17,10.92-6.7,18.63-17.58,17.22-.87-.11-1.73-.28-2.59-.5-3.19-.82-4.92-4.82-2.91-6.77Z"/>
      </g>
    </g>
    <g id="_Radial_Repeat_-8" data-name="&amp;lt;Radial Repeat&amp;gt;">
      <g>
        <path class="cls-1" d="M373.68,508.61l-44.78,55.55c-3.8,4.71-9.87,4.65-13.56-.14l-43.51-56.42c-5.95-7.72-1.53-20.78,7.01-20.69l7.62.08c3.84.04,7.27,2.98,8.73,7.47,3.16,9.7,9.79,18.02,19.89,21.9,4.39,1.68,9.1,1.6,13.49-.14,9.73-3.85,16.26-11.83,19.54-21.2,1.57-4.47,5.06-7.36,8.91-7.32l10.11.1c8.54.09,12.68,13.23,6.55,20.83Z"/>
        <path class="cls-1" d="M310.67,487.02l22.28.28c2.79.03,4.31,4.12,2.56,6.91-.46.73-.95,1.43-1.49,2.1-6.89,8.55-17.91,8.44-24.61-.25-.54-.69-1.03-1.42-1.48-2.18-1.68-2.83-.07-6.89,2.73-6.85Z"/>
      </g>
    </g>
  </g>
  <path class="cls-1" d="M325,464c-75.56,0-137.02-61.47-137.02-137.02s61.47-137.02,137.02-137.02,137.02,61.47,137.02,137.02-61.47,137.02-137.02,137.02ZM325,194.95c-72.8,0-132.02,59.23-132.02,132.02s59.23,132.02,132.02,132.02,132.02-59.23,132.02-132.02-59.23-132.02-132.02-132.02Z"/>
</svg>