<?xml version="1.0" encoding="UTF-8"?>
<svg id="Layer_1" data-name="Layer 1" xmlns="http://www.w3.org/2000/svg" viewBox="0 0 1046.57 635.48">
  <defs>
    <style>
      .cls-1 {
        fill: #141414;
        stroke-width: 0px;
      }
    </style>
  </defs>
  <g>
    <path class="cls-1" d="M537.88,340.74c-37.08,0-71.93-14.44-98.15-40.65-26.22-26.22-40.65-61.07-40.65-98.15s14.44-71.93,40.65-98.15c26.22-26.22,61.07-40.65,98.15-40.65s71.93,14.44,98.15,40.65c26.22,26.22,40.65,61.07,40.65,98.15s-14.44,71.93-40.65,98.15c-26.22,26.22-61.07,40.65-98.15,40.65ZM537.88,67.3c-74.24,0-134.63,60.4-134.63,134.63s60.4,134.63,134.63,134.63,134.63-60.4,134.63-134.63-60.4-134.63-134.63-134.63Z"/>
    <g>
      <path class="cls-1" d="M453.14,229.96l73.34-93.34c6.22-7.92,16.32-7.94,22.56-.05l73.56,92.96c10.07,12.72,2.98,34.53-11.23,34.57l-12.68.03c-6.39.02-12.16-4.8-14.69-12.24-5.47-16.07-16.66-29.77-33.54-36.01-7.34-2.71-15.17-2.47-22.44.51-16.11,6.61-26.81,20.02-32.07,35.68-2.51,7.47-8.26,12.35-14.66,12.36l-16.82.04c-14.22.04-21.37-21.75-11.33-34.52Z"/>
      <path class="cls-1" d="M558.42,264.58h-37.07c-4.65,0-7.25-6.77-4.41-11.44.74-1.22,1.56-2.4,2.44-3.52,11.29-14.37,29.62-14.41,40.94-.09.91,1.14,1.74,2.35,2.5,3.6,2.85,4.67.26,11.45-4.4,11.45Z"/>
    </g>
  </g>
  <g>
    <g>
      <path class="cls-1" d="M243.18,506.91c3.75,3.88,3.45,10.14-.68,13.62-2.85,2.4-5.86,4.58-9.03,6.55-11.38,7.04-23.82,10.56-37.33,10.56s-25.88-3.52-37.33-10.56c-11.52-7.11-20.62-16.67-27.31-28.69-6.68-12.09-10.03-25.35-10.03-39.78s3.34-27.8,10.03-39.89c6.68-12.02,15.79-21.62,27.31-28.8,11.45-7.04,23.89-10.56,37.33-10.56s25.95,3.52,37.33,10.56c3.1,1.92,6.03,4.03,8.79,6.34,4.15,3.47,4.45,9.74.69,13.63l-11.3,11.69c-3.4,3.51-8.93,3.81-12.69.69-.94-.78-1.86-1.47-2.78-2.06-6.26-4.2-12.94-6.29-20.05-6.29s-13.8,2.1-20.05,6.29c-6.12,4.2-10.99,9.74-14.61,16.64-3.56,6.97-5.33,14.22-5.33,21.76s1.81,14.79,5.44,21.76c3.63,6.9,8.5,12.44,14.61,16.64,6.11,4.2,12.76,6.29,19.95,6.29s13.83-2.1,19.95-6.29c1.09-.73,2.16-1.54,3.2-2.43,3.72-3.15,9.28-2.79,12.66.71l11.23,11.63Z"/>
      <path class="cls-1" d="M279.55,530.17c-9.67-5.12-17.35-12.12-23.04-21.01-5.76-8.96-8.64-18.99-8.64-30.08,0-8.32,1.67-16.07,5.01-23.25,3.34-7.18,7.93-13.4,13.76-18.67,5.9-5.33,12.62-9.42,20.16-12.27,7.68-2.84,15.54-4.27,23.57-4.27s16,1.42,23.68,4.27c7.47,2.7,14.19,6.76,20.16,12.16,5.9,5.4,10.49,11.66,13.76,18.77,3.34,7.18,5.01,14.93,5.01,23.25s-1.64,16.21-4.91,23.25c-3.27,7.11-7.89,13.4-13.87,18.88-6.04,5.4-12.76,9.49-20.16,12.27-7.47,2.91-15.36,4.37-23.68,4.37-10.88,0-21.16-2.56-30.83-7.68ZM290.43,498.7c5.62,5.48,12.27,8.21,19.95,8.21s14.43-2.74,20.05-8.21c5.69-5.47,8.53-12.02,8.53-19.63,0-4.98-1.32-9.56-3.95-13.76-2.63-4.19-6.15-7.54-10.56-10.03-4.34-2.49-9.03-3.73-14.08-3.73s-9.56,1.25-13.97,3.73c-4.41,2.49-7.93,5.83-10.56,10.03-2.63,4.2-3.95,8.78-3.95,13.76,0,7.61,2.84,14.15,8.53,19.63Z"/>
      <path class="cls-1" d="M474.96,467.45v60.74c0,3.44-2.79,6.24-6.24,6.24h-21.77c-3.44,0-6.24-2.79-6.24-6.24v-60.74c0-.14,0-.29-.01-.43-.62-9.88-4.92-14.96-12.89-15.25h-1.92c-8.68.29-13.01,6.29-13.01,18.03v58.4c0,3.44-2.79,6.24-6.24,6.24h-21.66c-3.44,0-6.24-2.79-6.24-6.24v-58.4c0-30.87,15.65-47.18,46.95-48.95.13,0,.26-.01.39-.01h1.52c.13,0,.27,0,.41.01,10.81.64,19.75,2.98,26.83,7.02,1.88,1.07,4.2,1.07,6.08,0,7.02-4.04,15.93-6.38,26.73-7.01.13,0,.27-.01.41-.01h1.52c.13,0,.26,0,.39.01,31.3,1.76,46.95,18.08,46.95,48.95v58.4c0,3.44-2.79,6.24-6.24,6.24h-21.66c-3.44,0-6.24-2.79-6.24-6.24v-58.4c0-11.73-4.34-17.74-13.01-18.03h-1.92c-7.98.28-12.27,5.36-12.89,15.25,0,.14-.01.29-.01.43Z"/>
      <path class="cls-1" d="M542.37,478.65c.07-10.88,2.95-20.66,8.64-29.33,5.69-8.89,13.37-15.86,23.04-20.91,9.67-5.12,19.95-7.68,30.83-7.68,8.32,0,16.21,1.46,23.68,4.37,7.39,2.7,14.11,6.79,20.16,12.27,5.97,5.48,10.59,11.73,13.87,18.77,3.27,7.04,4.91,14.79,4.91,23.25s-1.67,15.96-5.01,23.15c-3.27,7.11-7.86,13.33-13.76,18.67-5.9,5.4-12.62,9.49-20.16,12.27-7.61,2.77-15.5,4.16-23.68,4.16s-15.86-1.38-23.53-4.14c-.03-.01-.06-.02-.09-.03l-2.41-1.05-.67-.29c-.84-.37-1.78.25-1.78,1.17v41.79c0,.71-.57,1.28-1.28,1.28l-20.09-.06c-6.99-.02-12.65-5.7-12.65-12.69v-84.94ZM576.39,479.4c0,5.05,1.31,9.6,3.95,13.65,2.63,4.2,6.15,7.54,10.56,10.03,4.34,2.49,8.99,3.73,13.97,3.73s9.67-1.24,14.08-3.73c4.41-2.49,7.93-5.83,10.56-10.03,2.63-4.12,3.95-8.67,3.95-13.65,0-7.54-2.84-14.08-8.53-19.63-5.62-5.47-12.3-8.21-20.05-8.21s-14.33,2.74-19.95,8.21c-5.69,5.48-8.53,12.02-8.53,19.63Z"/>
      <path class="cls-1" d="M764.01,533.06c0-.91-.93-1.53-1.77-1.17-1.39.59-2.47,1.01-3.24,1.26-7.54,2.91-15.43,4.37-23.68,4.37-10.88,0-21.16-2.52-30.83-7.57-9.67-5.12-17.35-12.09-23.04-20.91-5.76-8.96-8.64-18.95-8.64-29.97,0-8.32,1.67-16.07,5.01-23.25,3.34-7.11,7.93-13.3,13.76-18.56,5.76-5.26,12.44-9.28,20.05-12.05,7.61-2.92,15.5-4.37,23.68-4.37s16,1.42,23.68,4.27c7.68,2.84,14.36,6.9,20.05,12.16,5.97,5.4,10.59,11.59,13.87,18.56,3.34,7.18,5.01,14.93,5.01,23.25l-.09,45.52c-.01,5.54-4.53,10.01-10.07,9.95l-22.5-.21c-.7,0-1.26-.58-1.26-1.28h0ZM710.79,465.32c-2.63,4.2-3.95,8.78-3.95,13.76,0,7.54,2.84,14.04,8.53,19.52,5.62,5.4,12.27,8.11,19.95,8.11s14.43-2.7,20.05-8.11c5.69-5.47,8.53-11.98,8.53-19.52,0-4.98-1.32-9.56-3.95-13.76-2.63-4.19-6.15-7.54-10.56-10.03-4.34-2.42-9.03-3.63-14.08-3.63s-9.56,1.21-13.97,3.63c-4.41,2.49-7.93,5.83-10.56,10.03Z"/>
      <path class="cls-1" d="M815.8,506.24c2.4-3.17,6.87-3.98,10.18-1.76,5.6,3.76,12.04,5.64,19.31,5.64,10.17,0,15.25-2.99,15.25-8.96,0-3.13-2.81-5.44-8.43-6.93-3.98-.92-10.31-2.52-18.99-4.8-7.04-1.85-12.98-5.26-17.81-10.24-4.76-4.91-7.15-12.44-7.15-22.61,0-7.82,1.95-14.43,5.87-19.84,3.98-5.4,9.14-9.39,15.47-11.95,6.47-2.63,13.55-3.95,21.23-3.95,4.34,0,8.75.61,13.23,1.81,4.83,1.49,9.17,3.34,13.01,5.55,1.32.74,2.59,1.51,3.81,2.3,4.02,2.62,4.56,8.3,1.16,11.68l-8.39,8.34c-2.34,2.32-5.91,2.87-8.83,1.34-4.19-2.19-8.64-3.29-13.36-3.29-7.75,0-11.63,2.17-11.63,6.51,0,3.91,2.88,6.65,8.64,8.21,6.33,1.71,12.69,3.31,19.09,4.8,7.04,1.78,12.91,5.05,17.6,9.81,4.76,4.84,7.15,12.44,7.15,22.83,0,7.75-2.06,14.44-6.19,20.05-4.12,5.69-9.64,9.92-16.53,12.69-6.9,2.91-14.04,4.37-21.44,4.37-6.19,0-11.77-.5-16.75-1.49-4.98-.92-9.64-2.49-13.97-4.69-2.4-1.18-4.85-2.57-7.37-4.18-3.72-2.37-4.62-7.43-1.96-10.95l7.79-10.29Z"/>
    </g>
    <g>
      <path class="cls-1" d="M924.96,529.87h-16.01c-.6,0-1.15.33-1.44.85l-3.46,6.28c-.29.52-.84.85-1.44.85h-7.63c-1.24,0-2.04-1.33-1.44-2.42l21.99-40.47c.62-1.14,2.26-1.14,2.88,0l21.96,40.47c.59,1.09-.2,2.42-1.44,2.42h-7.64c-.6,0-1.15-.33-1.44-.85l-3.46-6.28c-.29-.52-.84-.85-1.44-.85ZM920.03,519.14l-1.63-2.95c-.62-1.13-2.25-1.13-2.87,0l-1.64,2.95c-.61,1.09.18,2.44,1.43,2.44h3.26c1.25,0,2.04-1.34,1.44-2.43Z"/>
      <path class="cls-1" d="M945.82,492.96h5.92c1.41,0,2.55,1.14,2.55,2.55v39.78c0,1.41-1.15,2.55-2.56,2.55l-5.92-.02c-1.41,0-2.54-1.14-2.54-2.55v-39.76c0-1.41,1.14-2.55,2.55-2.55Z"/>
    </g>
  </g>
</svg>