<?xml version="1.0" encoding="UTF-8"?>
<svg id="Layer_1" data-name="Layer 1" xmlns="http://www.w3.org/2000/svg" viewBox="0 0 650 650">
  <defs>
    <style>
      .cls-1 {
        fill: #141414;
        stroke-width: 0px;
      }
    </style>
  </defs>
  <path class="cls-1" d="M335.88,584.86c-68.62,0-133.13-26.72-181.64-75.24-48.52-48.52-75.24-113.03-75.24-181.64s26.72-133.13,75.24-181.64c48.52-48.52,113.03-75.24,181.64-75.24s133.13,26.72,181.64,75.24c48.52,48.52,75.24,113.03,75.24,181.64s-26.72,133.13-75.24,181.64c-48.52,48.52-113.03,75.24-181.64,75.24ZM335.88,78.81c-137.39,0-249.17,111.78-249.17,249.17s111.78,249.17,249.17,249.17,249.17-111.78,249.17-249.17-111.78-249.17-249.17-249.17Z"/>
  <g>
    <path class="cls-1" d="M199.95,449.18c-12.45,0-23.64-7.71-29.94-20.65-6.89-14.13-8.1-35.71,4.74-52.06l135.73-172.75c6.62-8.43,15.56-13.08,25.15-13.1.02,0,.03,0,.05,0,9.57,0,18.49,4.61,25.11,12.99l136.13,172.05c12.87,16.27,11.74,37.83,4.91,51.99-6.27,13.01-17.47,20.79-29.96,20.82l-23.46.06h-.07c-14.17,0-26.83-10.33-32.28-26.35-10.43-30.66-31.31-53.13-58.8-63.29-12.2-4.51-25.19-4.2-37.56.88-26.3,10.8-46.29,33.08-56.26,62.73-5.42,16.12-18.1,26.56-32.29,26.59l-31.13.08h-.08ZM179.04,379.85l4.29,3.37c-9.87,12.56-8.74,29.82-3.52,40.54,4.5,9.23,11.84,14.52,20.14,14.52h.05l31.13-.08c9.44-.02,18.07-7.55,21.98-19.17,11-32.69,33.18-57.32,62.46-69.34,14.95-6.14,30.68-6.49,45.48-1.02,30.63,11.32,53.84,36.18,65.34,70.01,3.92,11.52,12.53,18.96,21.96,18.96h.05l23.46-.06c8.33-.02,15.68-5.36,20.17-14.66,5.18-10.74,6.25-27.98-3.64-40.49l-136.13-172.05c-4.52-5.71-10.4-8.85-16.57-8.85h-.03c-6.19.01-12.08,3.18-16.6,8.93l-135.73,172.75-4.29-3.37Z"/>
    <path class="cls-1" d="M373.88,449.36h-68.61c-5.41,0-10.2-3-13.14-8.22-3.67-6.54-3.55-14.87.32-21.23,1.49-2.45,3.14-4.83,4.88-7.05,11.16-14.21,26.14-22.05,42.16-22.07,15.97-.04,30.99,7.75,42.18,21.89,1.79,2.26,3.48,4.68,5.01,7.2,3.88,6.37,4.01,14.72.34,21.26-2.93,5.22-7.72,8.22-13.14,8.22ZM339.58,401.69h-.06c-12.62.02-24.55,6.38-33.61,17.91-1.48,1.88-2.87,3.89-4.14,5.98-2.1,3.45-1.54,7.72-.13,10.22.56.99,1.78,2.66,3.64,2.66h68.61c1.86,0,3.07-1.67,3.63-2.66,1.41-2.51,1.97-6.79-.14-10.25-1.3-2.14-2.73-4.19-4.25-6.11-9.06-11.45-20.97-17.75-33.55-17.75Z"/>
  </g>
</svg>