<?xml version="1.0" encoding="UTF-8"?>
<svg id="Layer_1" data-name="Layer 1" xmlns="http://www.w3.org/2000/svg" viewBox="0 0 2057.14 639.64">
  <defs>
    <style>
      .cls-1 {
        fill: #141414;
        stroke-width: 0px;
      }
    </style>
  </defs>
  <g>
    <path class="cls-1" d="M365.59,413.12c8.54,8.84,7.84,23.09-1.56,31.01-6.48,5.47-13.33,10.43-20.55,14.9-25.9,16.03-54.23,24.04-84.98,24.04s-58.92-8.01-84.98-24.04c-26.22-16.18-46.94-37.96-62.16-65.31-15.22-27.52-22.82-57.7-22.82-90.57s7.61-63.29,22.82-90.81c15.21-27.35,35.94-49.21,62.16-65.56,26.06-16.02,54.39-24.04,84.98-24.04s59.08,8.01,84.98,24.04c7.06,4.37,13.73,9.18,20.01,14.43,9.44,7.89,10.13,22.18,1.58,31.03l-25.72,26.62c-7.73,8-20.32,8.68-28.88,1.57-2.13-1.77-4.24-3.34-6.32-4.69-14.25-9.55-29.46-14.33-45.65-14.33s-31.41,4.78-45.65,14.33c-13.92,9.55-25.01,22.18-33.26,37.88-8.1,15.87-12.14,32.38-12.14,49.53s4.13,33.67,12.38,49.53c8.26,15.7,19.34,28.33,33.26,37.88,13.92,9.55,29.05,14.33,45.4,14.33s31.48-4.77,45.4-14.33c2.48-1.67,4.91-3.51,7.28-5.53,8.46-7.18,21.11-6.36,28.83,1.62l25.57,26.47Z"/>
    <path class="cls-1" d="M448.38,466.07c-22.02-11.65-39.5-27.6-52.45-47.83-13.11-20.4-19.67-43.22-19.67-68.47,0-18.94,3.8-36.58,11.41-52.93,7.61-16.35,18.05-30.51,31.32-42.49,13.43-12.14,28.73-21.45,45.89-27.92,17.48-6.47,35.37-9.71,53.66-9.71s36.42,3.24,53.9,9.71c17,6.15,32.29,15.38,45.89,27.68,13.43,12.3,23.87,26.55,31.32,42.73,7.61,16.35,11.41,33.99,11.41,52.93s-3.73,36.91-11.17,52.93c-7.45,16.19-17.97,30.51-31.56,42.98-13.76,12.3-29.06,21.61-45.89,27.92-17,6.64-34.96,9.95-53.9,9.95-24.77,0-48.16-5.83-70.17-17.48ZM473.15,394.44c12.78,12.47,27.92,18.7,45.4,18.7s32.86-6.23,45.65-18.7c12.95-12.46,19.42-27.35,19.42-44.68,0-11.33-3-21.77-8.98-31.32-5.99-9.55-14-17.16-24.04-22.82-9.88-5.66-20.56-8.5-32.05-8.5s-21.77,2.83-31.81,8.5c-10.04,5.67-18.05,13.27-24.04,22.82-5.99,9.55-8.98,19.99-8.98,31.32,0,17.32,6.47,32.21,19.42,44.68Z"/>
    <path class="cls-1" d="M893.2,323.31v138.28c0,7.84-6.36,14.2-14.2,14.2h-49.55c-7.84,0-14.2-6.36-14.2-14.2v-138.28c0-.33,0-.66-.03-.99-1.41-22.5-11.19-34.07-29.35-34.71h-4.37c-19.75.65-29.62,14.33-29.62,41.03v132.94c0,7.84-6.36,14.2-14.2,14.2h-49.3c-7.84,0-14.2-6.36-14.2-14.2v-132.94c0-70.27,35.62-107.41,106.88-111.42.29-.02.59-.02.88-.02h3.47c.31,0,.62,0,.92.03,24.6,1.45,44.96,6.78,61.08,15.99,4.28,2.44,9.56,2.43,13.83-.02,15.99-9.2,36.27-14.52,60.86-15.97.31-.02.62-.03.92-.03h3.47c.29,0,.59,0,.88.02,71.25,4.01,106.88,41.15,106.88,111.42v132.94c0,7.84-6.36,14.2-14.2,14.2h-49.3c-7.84,0-14.2-6.36-14.2-14.2v-132.94c0-26.71-9.87-40.38-29.62-41.03h-4.37c-18.16.64-27.94,12.21-29.35,34.71-.02.33-.03.66-.03.99Z"/>
    <path class="cls-1" d="M1046.65,348.8c.16-24.77,6.71-47.02,19.67-66.77,12.95-20.23,30.43-36.09,52.45-47.59,22.01-11.65,45.4-17.48,70.17-17.48,18.94,0,36.91,3.32,53.9,9.95,16.83,6.15,32.13,15.46,45.89,27.92,13.6,12.47,24.12,26.71,31.56,42.73,7.44,16.02,11.17,33.67,11.17,52.93s-3.81,36.34-11.41,52.69c-7.45,16.19-17.89,30.35-31.32,42.49-13.44,12.3-28.73,21.61-45.89,27.92-17.32,6.31-35.29,9.47-53.9,9.47s-36.11-3.14-53.56-9.43c-.07-.02-.13-.05-.2-.08l-5.49-2.39-1.52-.66c-1.92-.83-4.06.57-4.06,2.66v95.12c0,1.61-1.31,2.91-2.91,2.9l-45.74-.14c-15.92-.05-28.8-12.97-28.8-28.89v-193.36ZM1124.1,350.5c0,11.5,2.99,21.85,8.98,31.08,5.99,9.55,14,17.16,24.04,22.82,9.87,5.67,20.48,8.5,31.81,8.5s22.01-2.83,32.05-8.5c10.03-5.66,18.05-13.27,24.04-22.82,5.99-9.39,8.98-19.75,8.98-31.08,0-17.16-6.48-32.05-19.42-44.68-12.79-12.46-28.01-18.7-45.65-18.7s-32.62,6.23-45.4,18.7c-12.95,12.47-19.42,27.36-19.42,44.68Z"/>
    <path class="cls-1" d="M1551.2,472.66c0-2.08-2.12-3.48-4.04-2.67-3.17,1.34-5.63,2.3-7.38,2.88-17.16,6.64-35.13,9.95-53.9,9.95-24.77,0-48.16-5.75-70.17-17.24-22.02-11.65-39.5-27.52-52.45-47.59-13.11-20.4-19.67-43.14-19.67-68.23,0-18.94,3.8-36.58,11.41-52.93,7.61-16.18,18.05-30.27,31.32-42.25,13.11-11.98,28.32-21.12,45.65-27.44,17.32-6.64,35.29-9.96,53.9-9.96s36.42,3.24,53.9,9.71c17.48,6.48,32.69,15.7,45.65,27.68,13.6,12.3,24.12,26.39,31.56,42.25,7.61,16.35,11.41,33.99,11.41,52.93l-.2,103.63c-.02,12.61-10.31,22.78-22.92,22.66l-51.22-.48c-1.59-.02-2.88-1.31-2.88-2.9h0ZM1430.04,318.45c-5.99,9.55-8.98,19.99-8.98,31.32,0,17.16,6.47,31.97,19.42,44.43,12.78,12.3,27.92,18.45,45.4,18.45s32.86-6.15,45.65-18.45c12.95-12.46,19.42-27.27,19.42-44.43,0-11.33-3-21.77-8.98-31.32-5.99-9.55-14-17.16-24.04-22.82-9.88-5.5-20.56-8.26-32.05-8.26s-21.77,2.75-31.81,8.26c-10.04,5.67-18.05,13.27-24.04,22.82Z"/>
    <path class="cls-1" d="M1669.09,411.61c5.47-7.22,15.65-9.06,23.17-4.01,12.76,8.55,27.41,12.83,43.95,12.83,23.15,0,34.72-6.8,34.72-20.4,0-7.12-6.4-12.38-19.18-15.78-9.07-2.1-23.47-5.74-43.22-10.93-16.02-4.21-29.54-11.98-40.55-23.31-10.85-11.17-16.27-28.32-16.27-51.47,0-17.8,4.45-32.86,13.35-45.16,9.06-12.3,20.8-21.37,35.21-27.19,14.73-5.99,30.84-8.98,48.32-8.98,9.87,0,19.91,1.38,30.11,4.13,11.01,3.4,20.88,7.61,29.62,12.63,3.01,1.68,5.9,3.43,8.68,5.24,9.15,5.95,10.38,18.89,2.64,26.59l-19.09,18.98c-5.32,5.29-13.45,6.54-20.09,3.06-9.54-4.99-19.67-7.49-30.41-7.49-17.65,0-26.47,4.94-26.47,14.81,0,8.9,6.56,15.14,19.67,18.7,14.41,3.88,28.89,7.53,43.46,10.93,16.03,4.05,29.38,11.5,40.06,22.34,10.84,11.01,16.27,28.33,16.27,51.96,0,17.64-4.7,32.86-14.08,45.65-9.39,12.95-21.94,22.58-37.63,28.89-15.7,6.64-31.97,9.95-48.8,9.95-14.08,0-26.79-1.13-38.12-3.4-11.33-2.11-21.94-5.66-31.81-10.68-5.46-2.68-11.05-5.85-16.79-9.51-8.47-5.4-10.52-16.91-4.45-24.92l17.74-23.43Z"/>
  </g>
  <g>
    <path class="cls-1" d="M1917.58,465.4h-36.44c-1.36,0-2.61.74-3.27,1.93l-7.88,14.29c-.66,1.19-1.91,1.93-3.27,1.93h-17.38c-2.83,0-4.64-3.03-3.28-5.52l50.06-92.12c1.41-2.6,5.15-2.6,6.57,0l50,92.12c1.35,2.49-.45,5.52-3.28,5.52h-17.38c-1.36,0-2.61-.74-3.27-1.93l-7.88-14.29c-.66-1.19-1.91-1.93-3.27-1.93ZM1906.35,440.98l-3.7-6.71c-1.42-2.57-5.11-2.58-6.54,0l-3.73,6.71c-1.38,2.49.42,5.55,3.27,5.55h7.43c2.84,0,4.64-3.05,3.27-5.54Z"/>
    <path class="cls-1" d="M1965.07,381.38h13.47c3.21,0,5.8,2.6,5.8,5.8v90.55c0,3.21-2.61,5.81-5.82,5.8l-13.47-.04c-3.2,0-5.79-2.61-5.79-5.8v-90.51c0-3.21,2.6-5.8,5.8-5.8Z"/>
  </g>
</svg>