<svg width="46" height="46" viewBox="0 0 46 46" fill="none" xmlns="http://www.w3.org/2000/svg">
<path d="M16 22L10 28H0L6 22H16Z" fill="#F6CCAF"/>
<path d="M16.0004 22L12.0004 26H9.66035C9.19598 26.0021 8.74147 25.8661 8.35468 25.6091C7.96788 25.3521 7.66629 24.9859 7.4883 24.557C7.3103 24.128 7.26394 23.6559 7.35513 23.2005C7.44631 22.7452 7.67092 22.3273 8.00035 22H16.0004Z" fill="#FFDEC7"/>
<path d="M16 22V46H6V28H10L16 22Z" fill="#EDB996"/>
<path d="M10 30L16 24V44C13.8783 44 11.8434 43.1571 10.3431 41.6569C8.84285 40.1566 8 38.1217 8 36V30H10Z" fill="#F6CCAF"/>
<path d="M40 28V46H16V22L22 28H40Z" fill="#EDB996"/>
<path d="M40.0001 29.9972V43.9972H38.0001C33.3283 43.9969 28.8204 42.2753 25.3376 39.1615C21.8549 36.0476 19.6414 31.7598 19.1201 27.1172L22.0001 29.9972H40.0001Z" fill="#F6CCAF"/>
<path d="M46 28H22L16 22H40L46 28Z" fill="#F6CCAF"/>
<path d="M43.9996 25.9976H28.6596C26.8656 25.9984 25.089 25.6455 23.4315 24.9591C21.7739 24.2728 20.2679 23.2664 18.9996 21.9976C18.8996 21.8976 19.3496 21.9976 39.9996 21.9976L43.9996 25.9976Z" fill="#FFDEC7"/>
<path d="M28 16V22H18V16C21.2315 17.1653 24.7685 17.1653 28 16Z" fill="#DB5669"/>
<path d="M28 16.0019C24.77 17.1756 21.23 17.1756 18 16.0019L20.64 9.67188C22.2069 9.94433 23.8077 9.96122 25.38 9.72188C28.24 16.5719 27.81 15.5319 28 16.0019Z" fill="#F6CCAF"/>
<path d="M25.3796 9.72C23.8074 9.9604 22.2065 9.94351 20.6396 9.67L22.9996 4L25.3796 9.72Z" fill="#374F68"/>
<path d="M28 16V20H23.44C22.5277 20 21.6527 19.6376 21.0076 18.9924C20.3624 18.3473 20 17.4723 20 16.56C22.6646 17.1528 25.444 16.9582 28 16Z" fill="#F26674"/>
<path d="M28 15.9987C25.4439 16.9564 22.6646 17.1509 20 16.5587L21.74 9.81875C22.9527 9.9384 24.1757 9.9048 25.38 9.71875C28.24 16.5687 27.81 15.5287 28 15.9987Z" fill="#FFDEC7"/>
<path d="M25.3802 9.71844C24.1759 9.90417 22.953 9.93777 21.7402 9.81844C21.8402 9.71844 21.4802 10.4684 23.5802 5.39844C24.2802 7.05844 24.5702 7.78844 25.3802 9.71844Z" fill="#425B72"/>
<path d="M38.0003 2C37.9959 1.56353 37.8488 1.14049 37.5814 0.795449C37.3141 0.450405 36.9412 0.202296 36.5196 0.0889812C36.0981 -0.0243339 35.6511 0.00336643 35.2468 0.167856C34.8424 0.332345 34.503 0.62459 34.2803 1H11.7203C11.5002 0.618717 11.1604 0.320725 10.7536 0.152242C10.3469 -0.0162418 9.89591 -0.0458008 9.47064 0.068149C9.04538 0.182099 8.66959 0.433189 8.40157 0.782478C8.13356 1.13177 7.98828 1.55973 7.98828 2C7.98828 2.44027 8.13356 2.86823 8.40157 3.21752C8.66959 3.56681 9.04538 3.8179 9.47064 3.93185C9.89591 4.0458 10.3469 4.01624 10.7536 3.84776C11.1604 3.67928 11.5002 3.38128 11.7203 3H16.1003C14.4894 4.00269 13.1175 5.34586 12.081 6.93521C11.0445 8.52456 10.3684 10.3216 10.1003 12.2C9.70334 12.3896 9.37996 12.7049 9.18026 13.0969C8.98056 13.4889 8.9157 13.9358 8.99571 14.3684C9.07573 14.8011 9.29616 15.1952 9.62286 15.4899C9.94957 15.7845 10.3643 15.9632 10.8029 15.9983C11.2414 16.0334 11.6793 15.9229 12.0487 15.6839C12.4181 15.445 12.6984 15.0909 12.8462 14.6765C12.9939 14.2621 13.0009 13.8105 12.8661 13.3917C12.7313 12.973 12.4621 12.6103 12.1003 12.36C12.5161 9.77912 13.8374 7.43066 15.8274 5.73553C17.8175 4.0404 20.3462 3.1094 22.9603 3.1094C25.5745 3.1094 28.1032 4.0404 30.0932 5.73553C32.0833 7.43066 33.4046 9.77912 33.8203 12.36C33.4585 12.6103 33.1894 12.973 33.0545 13.3917C32.9197 13.8105 32.9267 14.2621 33.0745 14.6765C33.2223 15.0909 33.5026 15.445 33.872 15.6839C34.2414 15.9229 34.6792 16.0334 35.1178 15.9983C35.5563 15.9632 35.9711 15.7845 36.2978 15.4899C36.6245 15.1952 36.8449 14.8011 36.9249 14.3684C37.005 13.9358 36.9401 13.4889 36.7404 13.0969C36.5407 12.7049 36.2173 12.3896 35.8203 12.2C35.5522 10.3216 34.8762 8.52456 33.8397 6.93521C32.8031 5.34586 31.4312 4.00269 29.8203 3H34.2003C34.4009 3.42007 34.7418 3.75701 35.1641 3.95275C35.5865 4.1485 36.0639 4.19077 36.5141 4.0723C36.9643 3.95383 37.359 3.68204 37.6303 3.30376C37.9016 2.92547 38.0325 2.4644 38.0003 2Z" fill="#DAD7E5"/>
</svg>
