<svg width="16" height="16" viewBox="0 0 16 16" fill="none" xmlns="http://www.w3.org/2000/svg">
<path d="M7.39967 15.1693H4.59967C1.99301 15.1693 0.833008 14.0093 0.833008 11.4026V8.6026C0.833008 5.99594 1.99301 4.83594 4.59967 4.83594H7.39967C10.0063 4.83594 11.1663 5.99594 11.1663 8.6026V11.4026C11.1663 14.0093 10.0063 15.1693 7.39967 15.1693ZM4.59967 5.83594C2.53301 5.83594 1.83301 6.53594 1.83301 8.6026V11.4026C1.83301 13.4693 2.53301 14.1693 4.59967 14.1693H7.39967C9.46634 14.1693 10.1663 13.4693 10.1663 11.4026V8.6026C10.1663 6.53594 9.46634 5.83594 7.39967 5.83594H4.59967Z" fill="#9E9E54"/>
<path d="M11.3997 11.1693H10.6663C10.393 11.1693 10.1663 10.9426 10.1663 10.6693V8.6026C10.1663 6.53594 9.46634 5.83594 7.39967 5.83594H5.33301C5.05967 5.83594 4.83301 5.60927 4.83301 5.33594V4.6026C4.83301 1.99594 5.99301 0.835938 8.59967 0.835938H11.3997C14.0063 0.835938 15.1663 1.99594 15.1663 4.6026V7.4026C15.1663 10.0093 14.0063 11.1693 11.3997 11.1693ZM11.1663 10.1693H11.3997C13.4663 10.1693 14.1663 9.46927 14.1663 7.4026V4.6026C14.1663 2.53594 13.4663 1.83594 11.3997 1.83594H8.59967C6.53301 1.83594 5.83301 2.53594 5.83301 4.6026V4.83594H7.39967C10.0063 4.83594 11.1663 5.99594 11.1663 8.6026V10.1693Z" fill="#9E9E54"/>
</svg>
